<svg width="16" height="16" viewBox="0 0 16 16" fill="none" xmlns="http://www.w3.org/2000/svg">
    <g clip-path="url(#clip0_140_1316)">
        <path
            d="M8.66671 4.66668H7.33337V7.33334H4.66671V8.66668H7.33337V11.3333H8.66671V8.66668H11.3334V7.33334H8.66671V4.66668ZM8.00004 1.33334C4.32004 1.33334 1.33337 4.32001 1.33337 8.00001C1.33337 11.68 4.32004 14.6667 8.00004 14.6667C11.68 14.6667 14.6667 11.68 14.6667 8.00001C14.6667 4.32001 11.68 1.33334 8.00004 1.33334ZM8.00004 13.3333C5.06004 13.3333 2.66671 10.94 2.66671 8.00001C2.66671 5.06001 5.06004 2.66668 8.00004 2.66668C10.94 2.66668 13.3334 5.06001 13.3334 8.00001C13.3334 10.94 10.94 13.3333 8.00004 13.3333Z"
            fill="white" />
    </g>
    <defs>
        <clipPath id="clip0_140_1316">
            <rect width="16" height="16" fill="white" />
        </clipPath>
    </defs>
</svg>
    