<svg width="21" height="19" viewBox="0 0 21 19" fill="none" xmlns="http://www.w3.org/2000/svg">
    <path
        fill-rule="evenodd"
        clip-rule="evenodd"
        d="M1.96875 1.29688C1.96875 1.0358 1.86504 0.785423 1.68043 0.600817C1.49583 0.416211 1.24545 0.3125 0.984375 0.3125C0.723302 0.3125 0.472923 0.416211 0.288317 0.600817C0.103711 0.785423 0 1.0358 0 1.29688L0 17.7031C0 18.2465 0.441 18.6875 0.984375 18.6875H20.0156C20.2767 18.6875 20.5271 18.5838 20.7117 18.3992C20.8963 18.2146 21 17.9642 21 17.7031C21 17.4421 20.8963 17.1917 20.7117 17.0071C20.5271 16.8225 20.2767 16.7188 20.0156 16.7188H1.96875V1.29688ZM20.7113 4.6175C20.8851 4.4309 20.9798 4.18408 20.9753 3.92906C20.9708 3.67404 20.8675 3.43073 20.6871 3.25037C20.5068 3.07002 20.2635 2.96671 20.0084 2.96221C19.7534 2.95771 19.5066 3.05237 19.32 3.22625L13.125 9.42125L9.88313 6.17937C9.69855 5.99503 9.44836 5.89149 9.1875 5.89149C8.92664 5.89149 8.67645 5.99503 8.49187 6.17937L4.22625 10.445C4.05237 10.6316 3.95771 10.8784 3.96221 11.1334C3.96671 11.3885 4.07002 11.6318 4.25037 11.8121C4.43073 11.9925 4.67404 12.0958 4.92906 12.1003C5.18408 12.1048 5.4309 12.0101 5.6175 11.8362L9.1875 8.26625L12.4294 11.5081C12.6139 11.6925 12.8641 11.796 13.125 11.796C13.3859 11.796 13.6361 11.6925 13.8206 11.5081L20.7113 4.6175Z"
        fill="#002CCA"
        fill-opacity="0.6" />
</svg>
    