<svg width="21" height="21" viewBox="0 0 21 21" fill="none" xmlns="http://www.w3.org/2000/svg">
    <g clip-path="url(#clip0_30_3490)">
        <path fill-rule="evenodd" clip-rule="evenodd"
            d="M1.96875 2.29688C1.96875 2.0358 1.86504 1.78542 1.68043 1.60082C1.49583 1.41621 1.24545 1.3125 0.984375 1.3125C0.723303 1.3125 0.472923 1.41621 0.288317 1.60082C0.103711 1.78542 0 2.0358 0 2.29688L0 18.7031C0 19.2465 0.441 19.6875 0.984375 19.6875H20.0156C20.2767 19.6875 20.5271 19.5838 20.7117 19.3992C20.8963 19.2146 21 18.9642 21 18.7031C21 18.4421 20.8963 18.1917 20.7117 18.0071C20.5271 17.8225 20.2767 17.7188 20.0156 17.7188H1.96875V2.29688ZM20.7113 5.6175C20.8851 5.4309 20.9798 5.18408 20.9753 4.92906C20.9708 4.67404 20.8675 4.43073 20.6871 4.25037C20.5068 4.07002 20.2635 3.96671 20.0084 3.96221C19.7534 3.95771 19.5066 4.05237 19.32 4.22625L13.125 10.4213L9.88313 7.17937C9.69855 6.99503 9.44836 6.89149 9.1875 6.89149C8.92664 6.89149 8.67645 6.99503 8.49187 7.17937L4.22625 11.445C4.05237 11.6316 3.95771 11.8784 3.96221 12.1334C3.96671 12.3885 4.07002 12.6318 4.25037 12.8121C4.43073 12.9925 4.67404 13.0958 4.92906 13.1003C5.18408 13.1048 5.4309 13.0101 5.6175 12.8362L9.1875 9.26625L12.4294 12.5081C12.6139 12.6925 12.8641 12.796 13.125 12.796C13.3859 12.796 13.6361 12.6925 13.8206 12.5081L20.7113 5.6175Z"
            fill="#6D6D6D" />
    </g>
    <defs>
        <clipPath id="clip0_30_3490">
            <rect width="21" height="21" fill="white" />
        </clipPath>
    </defs>
</svg>
    