<svg width="15" height="15" viewBox="0 0 15 15" fill="none" xmlns="http://www.w3.org/2000/svg">
    <g clip-path="url(#clip0_30_3473)">
        <path
            d="M13.75 1.40607H11.7188V0.468574C11.7188 0.344254 11.6695 0.224993 11.5817 0.137027C11.4938 0.0490602 11.3746 -0.00040529 11.2503 -0.00048817C11.126 -0.00057105 11.0067 0.0487355 10.9188 0.136585C10.8308 0.224434 10.7813 0.343629 10.7812 0.467949V1.40607H7.96875V0.468574C7.96879 0.407017 7.95671 0.346055 7.93319 0.289168C7.90967 0.232281 7.87518 0.180583 7.83168 0.137027C7.78818 0.09347 7.73653 0.0589077 7.67967 0.0353129C7.62282 0.0117181 7.56187 -0.000447139 7.50031 -0.000488177C7.37599 -0.000571057 7.25673 0.0487355 7.16876 0.136585C7.0808 0.224434 7.03133 0.343629 7.03125 0.467949V1.40607H4.21875V0.468574C4.21879 0.407017 4.20671 0.346055 4.18319 0.289168C4.15967 0.232281 4.12518 0.180583 4.08168 0.137027C4.03818 0.09347 3.98653 0.0589077 3.92967 0.0353129C3.87282 0.0117181 3.81187 -0.000447139 3.75031 -0.000488177C3.62599 -0.000571057 3.50673 0.0487355 3.41876 0.136585C3.3308 0.224434 3.28133 0.343629 3.28125 0.467949V1.40607H1.25C0.918588 1.40607 0.60074 1.53768 0.366337 1.77197C0.131935 2.00626 0.000165706 2.32404 0 2.65545V13.7492C0 14.0807 0.131696 14.3987 0.366117 14.6331C0.600537 14.8675 0.918479 14.9992 1.25 14.9992H13.75C14.0815 14.9992 14.3995 14.8675 14.6339 14.6331C14.8683 14.3987 15 14.0807 15 13.7492V2.65545C14.9998 2.32404 14.8681 2.00626 14.6337 1.77197C14.3993 1.53768 14.0814 1.40607 13.75 1.40607ZM14.0625 13.7498C14.0625 13.8326 14.0297 13.912 13.9712 13.9706C13.9127 14.0292 13.8334 14.0622 13.7506 14.0623H1.25C1.16712 14.0623 1.08763 14.0294 1.02903 13.9708C0.970424 13.9122 0.9375 13.8327 0.9375 13.7498V2.65607C0.937666 2.5733 0.970663 2.49398 1.02925 2.43551C1.08784 2.37704 1.16723 2.3442 1.25 2.3442H3.28125V3.2817C3.28117 3.40602 3.33047 3.52528 3.41832 3.61325C3.50617 3.70121 3.62537 3.75068 3.74969 3.75076C3.87401 3.75085 3.99327 3.70154 4.08124 3.61369C4.1692 3.52584 4.21867 3.40664 4.21875 3.28232V2.3442H7.03125V3.2817C7.03117 3.40602 7.08047 3.52528 7.16832 3.61325C7.25617 3.70121 7.37537 3.75068 7.49969 3.75076C7.62401 3.75085 7.74327 3.70154 7.83124 3.61369C7.9192 3.52584 7.96867 3.40664 7.96875 3.28232V2.3442H10.7812V3.2817C10.7812 3.40602 10.8305 3.52528 10.9183 3.61325C11.0062 3.70121 11.1254 3.75068 11.2497 3.75076C11.374 3.75085 11.4933 3.70154 11.5812 3.61369C11.6692 3.52584 11.7187 3.40664 11.7188 3.28232V2.3442H13.75C13.8327 2.34436 13.9119 2.37728 13.9703 2.43573C14.0288 2.49418 14.0617 2.57341 14.0619 2.65607L14.0625 13.7498Z"
            fill="#A3A3A3" />
        <path
            d="M3.28125 5.625H5.15625V7.03125H3.28125V5.625ZM3.28125 7.96875H5.15625V9.375H3.28125V7.96875ZM3.28125 10.3125H5.15625V11.7188H3.28125V10.3125ZM6.5625 10.3125H8.4375V11.7188H6.5625V10.3125ZM6.5625 7.96875H8.4375V9.375H6.5625V7.96875ZM6.5625 5.625H8.4375V7.03125H6.5625V5.625ZM9.84375 10.3125H11.7188V11.7188H9.84375V10.3125ZM9.84375 7.96875H11.7188V9.375H9.84375V7.96875ZM9.84375 5.625H11.7188V7.03125H9.84375V5.625Z"
            fill="#A3A3A3" />
    </g>
    <defs>
        <clipPath id="clip0_30_3473">
            <rect width="15" height="15" fill="white" />
        </clipPath>
    </defs>
</svg>
    