<svg xmlns="http://www.w3.org/2000/svg" width="16" height="16" viewBox="0 0 16 16" fill="none">
    <g clip-path="url(#clip0_230_2783)">
        <path d="M7.33268 5.99999H8.66602V3.99999H10.666V2.66666H8.66602V0.666656H7.33268V2.66666H5.33268V3.99999H7.33268V5.99999ZM4.66602 12C3.93268 12 3.33935 12.6 3.33935 13.3333C3.33935 14.0667 3.93268 14.6667 4.66602 14.6667C5.39935 14.6667 5.99935 14.0667 5.99935 13.3333C5.99935 12.6 5.39935 12 4.66602 12ZM11.3327 12C10.5993 12 10.006 12.6 10.006 13.3333C10.006 14.0667 10.5993 14.6667 11.3327 14.6667C12.066 14.6667 12.666 14.0667 12.666 13.3333C12.666 12.6 12.066 12 11.3327 12ZM5.39935 8.66666H10.366C10.866 8.66666 11.306 8.39332 11.5327 7.97999L14.106 3.30666L12.946 2.66666L10.366 7.33332H5.68602L2.84602 1.33332H0.666016V2.66666H1.99935L4.39935 7.72666L3.49935 9.35332C3.01268 10.2467 3.65268 11.3333 4.66602 11.3333H12.666V9.99999H4.66602L5.39935 8.66666Z" fill="#010C15" fill-opacity="0.7"/>
    </g>
    <defs>
        <clipPath id="clip0_230_2783">
            <rect width="16" height="16" fill="white"/>
        </clipPath>
    </defs>
</svg>