<svg width="16" height="16" viewBox="0 0 16 16" fill="none"
    xmlns="http://www.w3.org/2000/svg">
    <g clip-path="url(#clip0_142_2219)">
        <path d="M13.3335 1.33333H2.66683C1.9335 1.33333 1.3335 1.93333 1.3335 2.66666V13.3333C1.3335 14.0667 1.9335 14.6667 2.66683 14.6667H13.3335C14.0668 14.6667 14.6668 14.0667 14.6668 13.3333V2.66666C14.6668 1.93333 14.0668 1.33333 13.3335 1.33333ZM5.3335 13.3333H2.66683V10.6667H5.3335V13.3333ZM5.3335 9.33333H2.66683V6.66666H5.3335V9.33333ZM5.3335 5.33333H2.66683V2.66666H5.3335V5.33333ZM9.3335 13.3333H6.66683V10.6667H9.3335V13.3333ZM9.3335 9.33333H6.66683V6.66666H9.3335V9.33333ZM9.3335 5.33333H6.66683V2.66666H9.3335V5.33333ZM13.3335 13.3333H10.6668V10.6667H13.3335V13.3333ZM13.3335 9.33333H10.6668V6.66666H13.3335V9.33333ZM13.3335 5.33333H10.6668V2.66666H13.3335V5.33333Z" fill="#010C15" fill-opacity="0.7"/>
    </g>
    <defs>
        <clipPath id="clip0_142_2219">
            <rect width="16" height="16" fill="white"/>
        </clipPath>
    </defs>
</svg>
    