<svg width="16" height="16" viewBox="0 0 16 16" fill="none"
    xmlns="http://www.w3.org/2000/svg">
    <g clip-path="url(#clip0_142_2220)">
        <path d="M8.00016 1.33333C4.32683 1.33333 1.3335 4.32666 1.3335 8C1.3335 11.6733 4.32683 14.6667 8.00016 14.6667C11.6735 14.6667 14.6668 11.6733 14.6668 8C14.6668 4.32666 11.6735 1.33333 8.00016 1.33333ZM8.00016 13.3333C5.06016 13.3333 2.66683 10.94 2.66683 8C2.66683 5.06 5.06016 2.66666 8.00016 2.66666C10.9402 2.66666 13.3335 5.06 13.3335 8C13.3335 10.94 10.9402 13.3333 8.00016 13.3333ZM10.0002 8C10.0002 9.10666 9.10683 10 8.00016 10C6.8935 10 6.00016 9.10666 6.00016 8C6.00016 6.89333 6.8935 6 8.00016 6C9.10683 6 10.0002 6.89333 10.0002 8Z" fill="#010C15" fill-opacity="0.7"/>
    </g>
    <defs>
        <clipPath id="clip0_142_2220">
            <rect width="16" height="16" fill="white"/>
        </clipPath>
    </defs>
</svg>
    