<svg width="477" height="308" viewBox="0 0 477 308" fill="none" xmlns="http://www.w3.org/2000/svg">
    <rect width="477" height="308" rx="9.81588" fill="white" />
    <path d="M42.3098 268.996L42.3098 15.8662" stroke="#E0E0E0" stroke-width="0.661091" />
    <path d="M84.7212 268.996L84.7212 15.8662" stroke="#E0E0E0" stroke-width="0.661091" />
    <path d="M127.132 268.996L127.132 15.8662" stroke="#E0E0E0" stroke-width="0.661091" />
    <path d="M169.544 268.996L169.544 15.8662" stroke="#E0E0E0" stroke-width="0.661091" />
    <path d="M211.955 268.996L211.955 15.8662" stroke="#E0E0E0" stroke-width="0.661091" />
    <path d="M254.366 268.996L254.366 15.8662" stroke="#E0E0E0" stroke-width="0.661091" />
    <path d="M296.777 268.996V15.8662" stroke="#E0E0E0" stroke-width="0.661091" />
    <path d="M339.189 268.996V15.8662" stroke="#E0E0E0" stroke-width="0.661091" />
    <path d="M381.6 268.996V15.8662" stroke="#E0E0E0" stroke-width="0.661091" />
    <path d="M424.011 268.996V15.8662" stroke="#E0E0E0" stroke-width="0.661091" />
    <path d="M466.423 268.996V15.8662" stroke="#E0E0E0" stroke-width="0.661091" />
    <path d="M42.3098 15.8662H466.423" stroke="#E0E0E0" stroke-width="0.661091" />
    <path d="M42.3098 43.9917H466.423" stroke="#E0E0E0" stroke-width="0.661091" />
    <path d="M42.3098 72.1172H466.423" stroke="#E0E0E0" stroke-width="0.661091" />
    <path d="M42.3098 100.243H466.423" stroke="#E0E0E0" stroke-width="0.661091" />
    <path d="M42.3098 128.368H466.423" stroke="#E0E0E0" stroke-width="0.661091" />
    <path d="M42.3098 156.494H466.423" stroke="#E0E0E0" stroke-width="0.661091" />
    <path d="M42.3098 184.619H466.423" stroke="#E0E0E0" stroke-width="0.661091" />
    <path d="M42.3098 212.745H466.423" stroke="#E0E0E0" stroke-width="0.661091" />
    <path d="M42.3098 240.87H466.423" stroke="#E0E0E0" stroke-width="0.661091" />
    <path d="M42.3098 268.996H466.423" stroke="#E0E0E0" stroke-width="0.661091" />
    <g opacity="0.72">
        <path
            d="M45.6471 281.957C45.2822 281.957 44.9675 281.899 44.703 281.782C44.4439 281.661 44.2456 281.486 44.1081 281.259C43.9758 281.026 43.9097 280.735 43.9097 280.386V280.148H44.6634V280.426C44.6634 280.712 44.748 280.931 44.9172 281.084C45.0865 281.232 45.3298 281.307 45.6471 281.307C45.9697 281.307 46.2156 281.203 46.3849 280.997C46.5594 280.791 46.6467 280.484 46.6467 280.077V276.42H47.4003V280.037C47.4003 280.466 47.3315 280.823 47.194 281.108C47.0565 281.394 46.8556 281.608 46.5911 281.751C46.332 281.888 46.0173 281.957 45.6471 281.957ZM49.9039 281.957C49.502 281.957 49.1794 281.854 48.9361 281.648C48.6928 281.441 48.5712 281.082 48.5712 280.569V277.689H49.2693V280.474C49.2693 280.648 49.2904 280.791 49.3327 280.902C49.3751 281.013 49.4359 281.1 49.5152 281.164C49.5945 281.227 49.6871 281.272 49.7929 281.299C49.9039 281.325 50.0229 281.338 50.1499 281.338C50.3508 281.338 50.5359 281.291 50.7052 281.195C50.8744 281.1 51.0119 280.963 51.1177 280.783C51.2288 280.598 51.2843 280.384 51.2843 280.14V277.689H51.9824V281.862H51.4192L51.3557 281.235H51.3002C51.1891 281.404 51.0622 281.542 50.9194 281.648C50.7819 281.753 50.6258 281.83 50.4513 281.878C50.2821 281.931 50.0996 281.957 49.9039 281.957ZM53.0655 281.862V277.689H53.6287L53.6922 278.316H53.7477C53.8588 278.146 53.983 278.009 54.1206 277.903C54.2634 277.797 54.4194 277.721 54.5886 277.673C54.7631 277.62 54.9482 277.594 55.1439 277.594C55.4084 277.594 55.6384 277.639 55.8341 277.729C56.0351 277.819 56.1911 277.964 56.3022 278.165C56.4185 278.366 56.4767 278.638 56.4767 278.982V281.862H55.7786V279.077C55.7786 278.903 55.7548 278.76 55.7072 278.649C55.6649 278.538 55.604 278.451 55.5247 278.387C55.4507 278.324 55.3581 278.279 55.2471 278.252C55.1413 278.226 55.0223 278.213 54.8901 278.213C54.6944 278.213 54.5093 278.26 54.3348 278.355C54.1602 278.451 54.0201 278.588 53.9143 278.768C53.8138 278.948 53.7636 279.162 53.7636 279.41V281.862H53.0655ZM59.1776 281.862V281.267H60.55V277.499H59.1697V277.054C59.3653 277.038 59.5663 277.009 59.7726 276.967C59.9841 276.925 60.1904 276.859 60.3914 276.769C60.5923 276.674 60.7748 276.552 60.9387 276.404H61.2561V281.267H62.5492V281.862H59.1776ZM63.1797 281.862V281.632C63.1797 281.41 63.222 281.206 63.3066 281.021C63.3966 280.831 63.5129 280.659 63.6557 280.505C63.8038 280.347 63.9704 280.196 64.1555 280.053C64.3406 279.91 64.5283 279.77 64.7187 279.633C64.9779 279.453 65.2159 279.273 65.4327 279.093C65.6548 278.913 65.832 278.72 65.9642 278.514C66.0964 278.303 66.1626 278.067 66.1626 277.808C66.1626 277.644 66.1229 277.496 66.0436 277.364C65.9695 277.226 65.8558 277.118 65.7024 277.038C65.5491 276.959 65.3534 276.92 65.1154 276.92C64.8351 276.92 64.6103 276.967 64.4411 277.062C64.2718 277.157 64.1475 277.284 64.0682 277.443C63.9942 277.602 63.9572 277.776 63.9572 277.967V278.292H63.267C63.2617 278.265 63.2564 278.226 63.2511 278.173C63.2458 278.115 63.2432 278.049 63.2432 277.975C63.2432 277.583 63.3304 277.269 63.505 277.031C63.6795 276.787 63.9122 276.61 64.2031 276.499C64.494 276.383 64.8086 276.325 65.1471 276.325C65.4486 276.325 65.7077 276.367 65.9246 276.451C66.1414 276.531 66.3212 276.642 66.464 276.785C66.6068 276.927 66.7126 277.091 66.7813 277.276C66.8501 277.456 66.8845 277.647 66.8845 277.848C66.8845 278.096 66.8395 278.324 66.7496 278.53C66.665 278.736 66.5433 278.929 66.3847 279.109C66.2313 279.284 66.0488 279.453 65.8373 279.617C65.631 279.781 65.4063 279.947 65.163 280.117C64.9937 280.228 64.8272 280.347 64.6632 280.474C64.4993 280.595 64.3591 280.719 64.2427 280.846C64.1264 280.973 64.0524 281.095 64.0206 281.211H66.9162V281.862H63.1797Z"
            fill="black" />
    </g>
    <g opacity="0.72">
        <path
            d="M90.3924 281.957C90.0275 281.957 89.7128 281.899 89.4484 281.782C89.1893 281.661 88.9909 281.486 88.8534 281.259C88.7212 281.026 88.6551 280.735 88.6551 280.386V280.148H89.4087V280.426C89.4087 280.712 89.4934 280.931 89.6626 281.084C89.8318 281.232 90.0751 281.307 90.3924 281.307C90.7151 281.307 90.961 281.203 91.1302 280.997C91.3048 280.791 91.392 280.484 91.392 280.077V276.42H92.1457V280.037C92.1457 280.466 92.0769 280.823 91.9394 281.108C91.8019 281.394 91.6009 281.608 91.3365 281.751C91.0773 281.888 90.7627 281.957 90.3924 281.957ZM94.6493 281.957C94.2474 281.957 93.9247 281.854 93.6815 281.648C93.4382 281.441 93.3165 281.082 93.3165 280.569V277.689H94.0146V280.474C94.0146 280.648 94.0358 280.791 94.0781 280.902C94.1204 281.013 94.1812 281.1 94.2606 281.164C94.3399 281.227 94.4325 281.272 94.5382 281.299C94.6493 281.325 94.7683 281.338 94.8952 281.338C95.0962 281.338 95.2813 281.291 95.4505 281.195C95.6198 281.1 95.7573 280.963 95.8631 280.783C95.9741 280.598 96.0297 280.384 96.0297 280.14V277.689H96.7278V281.862H96.1645L96.101 281.235H96.0455C95.9345 281.404 95.8075 281.542 95.6647 281.648C95.5272 281.753 95.3712 281.83 95.1967 281.878C95.0274 281.931 94.845 281.957 94.6493 281.957ZM97.8108 281.862V277.689H98.3741L98.4375 278.316H98.4931C98.6041 278.146 98.7284 278.009 98.8659 277.903C99.0087 277.797 99.1647 277.721 99.334 277.673C99.5085 277.62 99.6936 277.594 99.8893 277.594C100.154 277.594 100.384 277.639 100.579 277.729C100.78 277.819 100.936 277.964 101.048 278.165C101.164 278.366 101.222 278.638 101.222 278.982V281.862H100.524V279.077C100.524 278.903 100.5 278.76 100.453 278.649C100.41 278.538 100.349 278.451 100.27 278.387C100.196 278.324 100.103 278.279 99.9924 278.252C99.8866 278.226 99.7676 278.213 99.6354 278.213C99.4397 278.213 99.2546 278.26 99.0801 278.355C98.9056 278.451 98.7654 278.588 98.6597 278.768C98.5592 278.948 98.5089 279.162 98.5089 279.41V281.862H97.8108ZM103.923 281.862V281.267H105.295V277.499H103.915V277.054C104.111 277.038 104.312 277.009 104.518 276.967C104.729 276.925 104.936 276.859 105.137 276.769C105.338 276.674 105.52 276.552 105.684 276.404H106.001V281.267H107.295V281.862H103.923ZM109.813 281.957C109.39 281.957 109.033 281.894 108.742 281.767C108.451 281.634 108.232 281.449 108.084 281.211C107.936 280.973 107.862 280.69 107.862 280.362V280.259H108.568V280.362C108.568 280.69 108.671 280.942 108.877 281.116C109.089 281.285 109.379 281.37 109.75 281.37C110.12 281.37 110.419 281.291 110.646 281.132C110.874 280.968 110.987 280.709 110.987 280.355C110.987 280.095 110.926 279.897 110.805 279.76C110.683 279.622 110.524 279.527 110.329 279.474C110.138 279.416 109.935 279.387 109.718 279.387H109.147V278.8H109.742C109.943 278.8 110.128 278.768 110.297 278.704C110.466 278.641 110.601 278.538 110.702 278.395C110.807 278.247 110.86 278.057 110.86 277.824C110.86 277.612 110.813 277.44 110.718 277.308C110.628 277.176 110.503 277.078 110.345 277.015C110.186 276.946 110.011 276.912 109.821 276.912C109.61 276.912 109.419 276.949 109.25 277.023C109.081 277.091 108.946 277.197 108.845 277.34C108.75 277.483 108.703 277.663 108.703 277.879V277.983H107.989V277.84C107.989 277.538 108.065 277.274 108.219 277.046C108.377 276.819 108.591 276.642 108.861 276.515C109.136 276.388 109.451 276.325 109.805 276.325C110.154 276.325 110.461 276.38 110.725 276.491C110.995 276.602 111.207 276.766 111.36 276.983C111.513 277.2 111.59 277.467 111.59 277.784C111.59 278.017 111.548 278.215 111.463 278.379C111.379 278.538 111.268 278.67 111.13 278.776C110.993 278.882 110.844 278.969 110.686 279.038V279.069C110.977 279.154 111.22 279.307 111.416 279.529C111.611 279.752 111.709 280.042 111.709 280.402C111.709 280.725 111.627 281.002 111.463 281.235C111.305 281.468 111.08 281.648 110.789 281.775C110.503 281.896 110.178 281.957 109.813 281.957Z"
            fill="black" />
    </g>
    <g opacity="0.72">
        <path
            d="M135.138 281.957C134.773 281.957 134.458 281.899 134.194 281.782C133.934 281.661 133.736 281.486 133.599 281.259C133.466 281.026 133.4 280.735 133.4 280.386V280.148H134.154V280.426C134.154 280.712 134.238 280.931 134.408 281.084C134.577 281.232 134.82 281.307 135.138 281.307C135.46 281.307 135.706 281.203 135.875 280.997C136.05 280.791 136.137 280.484 136.137 280.077V276.42H136.891V280.037C136.891 280.466 136.822 280.823 136.685 281.108C136.547 281.394 136.346 281.608 136.082 281.751C135.822 281.888 135.508 281.957 135.138 281.957ZM139.394 281.957C138.992 281.957 138.67 281.854 138.427 281.648C138.183 281.441 138.062 281.082 138.062 280.569V277.689H138.76V280.474C138.76 280.648 138.781 280.791 138.823 280.902C138.866 281.013 138.926 281.1 139.006 281.164C139.085 281.227 139.178 281.272 139.283 281.299C139.394 281.325 139.513 281.338 139.64 281.338C139.841 281.338 140.026 281.291 140.196 281.195C140.365 281.1 140.502 280.963 140.608 280.783C140.719 280.598 140.775 280.384 140.775 280.14V277.689H141.473V281.862H140.91L140.846 281.235H140.791C140.68 281.404 140.553 281.542 140.41 281.648C140.272 281.753 140.116 281.83 139.942 281.878C139.773 281.931 139.59 281.957 139.394 281.957ZM142.556 281.862V277.689H143.119L143.183 278.316H143.238C143.349 278.146 143.474 278.009 143.611 277.903C143.754 277.797 143.91 277.721 144.079 277.673C144.254 277.62 144.439 277.594 144.634 277.594C144.899 277.594 145.129 277.639 145.325 277.729C145.526 277.819 145.682 277.964 145.793 278.165C145.909 278.366 145.967 278.638 145.967 278.982V281.862H145.269V279.077C145.269 278.903 145.245 278.76 145.198 278.649C145.155 278.538 145.095 278.451 145.015 278.387C144.941 278.324 144.849 278.279 144.738 278.252C144.632 278.226 144.513 278.213 144.381 278.213C144.185 278.213 144 278.26 143.825 278.355C143.651 278.451 143.511 278.588 143.405 278.768C143.304 278.948 143.254 279.162 143.254 279.41V281.862H142.556ZM148.668 281.862V281.267H150.04V277.499H148.66V277.054C148.856 277.038 149.057 277.009 149.263 276.967C149.475 276.925 149.681 276.859 149.882 276.769C150.083 276.674 150.265 276.552 150.429 276.404H150.747V281.267H152.04V281.862H148.668ZM155.026 281.862V280.529H152.496V279.942C152.718 279.561 152.919 279.178 153.099 278.792C153.284 278.406 153.448 278.009 153.59 277.602C153.739 277.195 153.86 276.769 153.955 276.325H154.701C154.632 276.615 154.548 276.914 154.447 277.221C154.347 277.522 154.236 277.816 154.114 278.102C153.992 278.387 153.871 278.654 153.749 278.903C153.633 279.151 153.522 279.366 153.416 279.545C153.315 279.725 153.233 279.857 153.17 279.942H155.026V278.213C155.058 278.128 155.09 278.041 155.122 277.951C155.159 277.856 155.193 277.76 155.225 277.665C155.256 277.565 155.285 277.472 155.312 277.388C155.338 277.298 155.36 277.213 155.375 277.134H155.724V279.942H156.446V280.529H155.724V281.862H155.026Z"
            fill="black" />
    </g>
    <g opacity="0.72">
        <path
            d="M178.992 281.957C178.627 281.957 178.312 281.899 178.048 281.782C177.788 281.661 177.59 281.486 177.453 281.259C177.32 281.026 177.254 280.735 177.254 280.386V280.148H178.008V280.426C178.008 280.712 178.092 280.931 178.262 281.084C178.431 281.232 178.674 281.307 178.992 281.307C179.314 281.307 179.56 281.203 179.729 280.997C179.904 280.791 179.991 280.484 179.991 280.077V276.42H180.745V280.037C180.745 280.466 180.676 280.823 180.539 281.108C180.401 281.394 180.2 281.608 179.936 281.751C179.676 281.888 179.362 281.957 178.992 281.957ZM183.248 281.957C182.846 281.957 182.524 281.854 182.281 281.648C182.037 281.441 181.916 281.082 181.916 280.569V277.689H182.614V280.474C182.614 280.648 182.635 280.791 182.677 280.902C182.72 281.013 182.78 281.1 182.86 281.164C182.939 281.227 183.032 281.272 183.137 281.299C183.248 281.325 183.367 281.338 183.494 281.338C183.695 281.338 183.88 281.291 184.05 281.195C184.219 281.1 184.356 280.963 184.462 280.783C184.573 280.598 184.629 280.384 184.629 280.14V277.689H185.327V281.862H184.764L184.7 281.235H184.645C184.534 281.404 184.407 281.542 184.264 281.648C184.126 281.753 183.97 281.83 183.796 281.878C183.627 281.931 183.444 281.957 183.248 281.957ZM186.41 281.862V277.689H186.973L187.037 278.316H187.092C187.203 278.146 187.328 278.009 187.465 277.903C187.608 277.797 187.764 277.721 187.933 277.673C188.108 277.62 188.293 277.594 188.488 277.594C188.753 277.594 188.983 277.639 189.179 277.729C189.38 277.819 189.536 277.964 189.647 278.165C189.763 278.366 189.821 278.638 189.821 278.982V281.862H189.123V279.077C189.123 278.903 189.099 278.76 189.052 278.649C189.009 278.538 188.949 278.451 188.869 278.387C188.795 278.324 188.703 278.279 188.592 278.252C188.486 278.226 188.367 278.213 188.235 278.213C188.039 278.213 187.854 278.26 187.679 278.355C187.505 278.451 187.365 278.588 187.259 278.768C187.158 278.948 187.108 279.162 187.108 279.41V281.862H186.41ZM192.522 281.862V281.267H193.894V277.499H192.514V277.054C192.71 277.038 192.911 277.009 193.117 276.967C193.329 276.925 193.535 276.859 193.736 276.769C193.937 276.674 194.119 276.552 194.283 276.404H194.601V281.267H195.894V281.862H192.522ZM198.428 281.957C198.047 281.957 197.714 281.886 197.429 281.743C197.143 281.6 196.921 281.396 196.762 281.132C196.604 280.862 196.524 280.542 196.524 280.172H197.23C197.23 280.421 197.283 280.635 197.389 280.815C197.495 280.994 197.637 281.132 197.817 281.227C198.002 281.322 198.206 281.37 198.428 281.37C198.656 281.37 198.857 281.325 199.031 281.235C199.206 281.14 199.34 280.997 199.436 280.807C199.536 280.616 199.586 280.376 199.586 280.085C199.586 279.82 199.541 279.604 199.452 279.434C199.362 279.26 199.232 279.13 199.063 279.046C198.899 278.961 198.708 278.919 198.492 278.919C198.333 278.919 198.182 278.945 198.039 278.998C197.897 279.046 197.767 279.114 197.651 279.204C197.54 279.294 197.447 279.405 197.373 279.537L196.715 279.434L196.945 276.42H200.031V277.07H197.555L197.429 278.768C197.518 278.689 197.619 278.617 197.73 278.554C197.846 278.485 197.979 278.432 198.127 278.395C198.275 278.353 198.444 278.332 198.634 278.332C198.946 278.332 199.229 278.392 199.483 278.514C199.737 278.636 199.938 278.823 200.086 279.077C200.234 279.331 200.308 279.659 200.308 280.061C200.308 280.458 200.232 280.799 200.078 281.084C199.93 281.37 199.716 281.587 199.436 281.735C199.155 281.883 198.82 281.957 198.428 281.957Z"
            fill="black" />
    </g>
    <g opacity="0.72">
        <path
            d="M222.846 281.957C222.481 281.957 222.166 281.899 221.902 281.782C221.642 281.661 221.444 281.486 221.307 281.259C221.174 281.026 221.108 280.735 221.108 280.386V280.148H221.862V280.426C221.862 280.712 221.946 280.931 222.116 281.084C222.285 281.232 222.528 281.307 222.846 281.307C223.168 281.307 223.414 281.203 223.583 280.997C223.758 280.791 223.845 280.484 223.845 280.077V276.42H224.599V280.037C224.599 280.466 224.53 280.823 224.393 281.108C224.255 281.394 224.054 281.608 223.79 281.751C223.53 281.888 223.216 281.957 222.846 281.957ZM227.102 281.957C226.7 281.957 226.378 281.854 226.135 281.648C225.891 281.441 225.77 281.082 225.77 280.569V277.689H226.468V280.474C226.468 280.648 226.489 280.791 226.531 280.902C226.574 281.013 226.634 281.1 226.714 281.164C226.793 281.227 226.886 281.272 226.991 281.299C227.102 281.325 227.221 281.338 227.348 281.338C227.549 281.338 227.734 281.291 227.904 281.195C228.073 281.1 228.21 280.963 228.316 280.783C228.427 280.598 228.483 280.384 228.483 280.14V277.689H229.181V281.862H228.618L228.554 281.235H228.499C228.388 281.404 228.261 281.542 228.118 281.648C227.98 281.753 227.824 281.83 227.65 281.878C227.481 281.931 227.298 281.957 227.102 281.957ZM230.264 281.862V277.689H230.827L230.891 278.316H230.946C231.057 278.146 231.182 278.009 231.319 277.903C231.462 277.797 231.618 277.721 231.787 277.673C231.962 277.62 232.147 277.594 232.342 277.594C232.607 277.594 232.837 277.639 233.033 277.729C233.234 277.819 233.39 277.964 233.501 278.165C233.617 278.366 233.675 278.638 233.675 278.982V281.862H232.977V279.077C232.977 278.903 232.953 278.76 232.906 278.649C232.863 278.538 232.803 278.451 232.723 278.387C232.649 278.324 232.557 278.279 232.446 278.252C232.34 278.226 232.221 278.213 232.089 278.213C231.893 278.213 231.708 278.26 231.533 278.355C231.359 278.451 231.219 278.588 231.113 278.768C231.012 278.948 230.962 279.162 230.962 279.41V281.862H230.264ZM236.376 281.862V281.267H237.749V277.499H236.368V277.054C236.564 277.038 236.765 277.009 236.971 276.967C237.183 276.925 237.389 276.859 237.59 276.769C237.791 276.674 237.973 276.552 238.137 276.404H238.455V281.267H239.748V281.862H236.376ZM242.361 281.957C242.049 281.957 241.769 281.912 241.521 281.822C241.277 281.732 241.068 281.587 240.894 281.386C240.725 281.185 240.595 280.915 240.505 280.577C240.415 280.233 240.37 279.807 240.37 279.299C240.37 278.739 240.415 278.271 240.505 277.895C240.595 277.514 240.722 277.21 240.886 276.983C241.055 276.75 241.261 276.584 241.505 276.483C241.753 276.377 242.034 276.325 242.346 276.325C242.737 276.325 243.052 276.399 243.29 276.547C243.533 276.695 243.71 276.896 243.821 277.15C243.932 277.398 243.988 277.684 243.988 278.006H243.274C243.274 277.763 243.239 277.559 243.171 277.395C243.102 277.232 242.993 277.11 242.845 277.031C242.703 276.951 242.523 276.912 242.306 276.912C241.989 276.912 241.74 276.996 241.56 277.165C241.386 277.329 241.264 277.57 241.195 277.887C241.132 278.205 241.097 278.583 241.092 279.022C241.166 278.9 241.269 278.789 241.402 278.689C241.539 278.588 241.7 278.509 241.885 278.451C242.071 278.387 242.266 278.355 242.473 278.355C242.864 278.355 243.187 278.435 243.44 278.593C243.694 278.747 243.882 278.958 244.004 279.228C244.125 279.498 244.186 279.799 244.186 280.132C244.186 280.497 244.107 280.817 243.948 281.092C243.789 281.367 243.573 281.582 243.298 281.735C243.023 281.883 242.711 281.957 242.361 281.957ZM242.314 281.37C242.573 281.37 242.787 281.314 242.956 281.203C243.126 281.087 243.25 280.936 243.329 280.751C243.414 280.561 243.456 280.352 243.456 280.124C243.456 279.908 243.417 279.709 243.337 279.529C243.258 279.35 243.134 279.207 242.964 279.101C242.8 278.99 242.589 278.935 242.33 278.935C242.071 278.935 241.854 278.99 241.679 279.101C241.505 279.212 241.375 279.36 241.291 279.545C241.206 279.725 241.164 279.931 241.164 280.164C241.164 280.381 241.206 280.582 241.291 280.767C241.375 280.952 241.502 281.1 241.671 281.211C241.841 281.317 242.055 281.37 242.314 281.37Z"
            fill="black" />
    </g>
    <g opacity="0.72">
        <path
            d="M266.7 281.957C266.335 281.957 266.02 281.899 265.756 281.782C265.496 281.661 265.298 281.486 265.161 281.259C265.028 281.026 264.962 280.735 264.962 280.386V280.148H265.716V280.426C265.716 280.712 265.8 280.931 265.97 281.084C266.139 281.232 266.382 281.307 266.7 281.307C267.022 281.307 267.268 281.203 267.437 280.997C267.612 280.791 267.699 280.484 267.699 280.077V276.42H268.453V280.037C268.453 280.466 268.384 280.823 268.247 281.108C268.109 281.394 267.908 281.608 267.644 281.751C267.384 281.888 267.07 281.957 266.7 281.957ZM270.956 281.957C270.554 281.957 270.232 281.854 269.989 281.648C269.745 281.441 269.624 281.082 269.624 280.569V277.689H270.322V280.474C270.322 280.648 270.343 280.791 270.385 280.902C270.428 281.013 270.488 281.1 270.568 281.164C270.647 281.227 270.74 281.272 270.845 281.299C270.956 281.325 271.075 281.338 271.202 281.338C271.403 281.338 271.588 281.291 271.758 281.195C271.927 281.1 272.064 280.963 272.17 280.783C272.281 280.598 272.337 280.384 272.337 280.14V277.689H273.035V281.862H272.472L272.408 281.235H272.353C272.242 281.404 272.115 281.542 271.972 281.648C271.834 281.753 271.678 281.83 271.504 281.878C271.335 281.931 271.152 281.957 270.956 281.957ZM274.118 281.862V277.689H274.681L274.745 278.316H274.8C274.911 278.146 275.036 278.009 275.173 277.903C275.316 277.797 275.472 277.721 275.641 277.673C275.816 277.62 276.001 277.594 276.196 277.594C276.461 277.594 276.691 277.639 276.887 277.729C277.088 277.819 277.244 277.964 277.355 278.165C277.471 278.366 277.529 278.638 277.529 278.982V281.862H276.831V279.077C276.831 278.903 276.807 278.76 276.76 278.649C276.717 278.538 276.657 278.451 276.577 278.387C276.503 278.324 276.411 278.279 276.3 278.252C276.194 278.226 276.075 278.213 275.943 278.213C275.747 278.213 275.562 278.26 275.387 278.355C275.213 278.451 275.073 278.588 274.967 278.768C274.866 278.948 274.816 279.162 274.816 279.41V281.862H274.118ZM280.23 281.862V281.267H281.603V277.499H280.222V277.054C280.418 277.038 280.619 277.009 280.825 276.967C281.037 276.925 281.243 276.859 281.444 276.769C281.645 276.674 281.827 276.552 281.991 276.404H282.309V281.267H283.602V281.862H280.23ZM284.986 281.862C284.986 281.37 285.049 280.897 285.176 280.442C285.303 279.987 285.467 279.556 285.668 279.149C285.874 278.741 286.099 278.363 286.342 278.014C286.586 277.665 286.824 277.351 287.056 277.07H284.145V276.42H287.977V276.856C287.781 277.083 287.577 277.337 287.366 277.618C287.16 277.893 286.961 278.186 286.771 278.498C286.58 278.805 286.409 279.125 286.255 279.458C286.102 279.791 285.98 280.13 285.89 280.474C285.8 280.812 285.755 281.15 285.755 281.489V281.862H284.986Z"
            fill="black" />
    </g>
    <g opacity="0.72">
        <path
            d="M310.554 281.957C310.189 281.957 309.874 281.899 309.61 281.782C309.35 281.661 309.152 281.486 309.015 281.259C308.882 281.026 308.816 280.735 308.816 280.386V280.148H309.57V280.426C309.57 280.712 309.654 280.931 309.824 281.084C309.993 281.232 310.236 281.307 310.554 281.307C310.876 281.307 311.122 281.203 311.291 280.997C311.466 280.791 311.553 280.484 311.553 280.077V276.42H312.307V280.037C312.307 280.466 312.238 280.823 312.101 281.108C311.963 281.394 311.762 281.608 311.498 281.751C311.238 281.888 310.924 281.957 310.554 281.957ZM314.81 281.957C314.408 281.957 314.086 281.854 313.843 281.648C313.599 281.441 313.478 281.082 313.478 280.569V277.689H314.176V280.474C314.176 280.648 314.197 280.791 314.239 280.902C314.282 281.013 314.342 281.1 314.422 281.164C314.501 281.227 314.594 281.272 314.699 281.299C314.81 281.325 314.929 281.338 315.056 281.338C315.257 281.338 315.442 281.291 315.612 281.195C315.781 281.1 315.918 280.963 316.024 280.783C316.135 280.598 316.191 280.384 316.191 280.14V277.689H316.889V281.862H316.326L316.262 281.235H316.207C316.096 281.404 315.969 281.542 315.826 281.648C315.688 281.753 315.532 281.83 315.358 281.878C315.189 281.931 315.006 281.957 314.81 281.957ZM317.972 281.862V277.689H318.535L318.599 278.316H318.654C318.765 278.146 318.89 278.009 319.027 277.903C319.17 277.797 319.326 277.721 319.495 277.673C319.67 277.62 319.855 277.594 320.05 277.594C320.315 277.594 320.545 277.639 320.741 277.729C320.942 277.819 321.098 277.964 321.209 278.165C321.325 278.366 321.383 278.638 321.383 278.982V281.862H320.685V279.077C320.685 278.903 320.661 278.76 320.614 278.649C320.571 278.538 320.511 278.451 320.431 278.387C320.357 278.324 320.265 278.279 320.154 278.252C320.048 278.226 319.929 278.213 319.797 278.213C319.601 278.213 319.416 278.26 319.241 278.355C319.067 278.451 318.927 278.588 318.821 278.768C318.72 278.948 318.67 279.162 318.67 279.41V281.862H317.972ZM324.084 281.862V281.267H325.457V277.499H324.076V277.054C324.272 277.038 324.473 277.009 324.679 276.967C324.891 276.925 325.097 276.859 325.298 276.769C325.499 276.674 325.681 276.552 325.845 276.404H326.163V281.267H327.456V281.862H324.084ZM329.966 281.957C329.517 281.957 329.152 281.886 328.872 281.743C328.591 281.6 328.385 281.41 328.253 281.172C328.126 280.934 328.062 280.669 328.062 280.378C328.062 280.082 328.136 279.82 328.285 279.593C328.433 279.366 328.665 279.191 328.983 279.069C328.729 278.937 328.536 278.763 328.404 278.546C328.277 278.329 328.213 278.088 328.213 277.824C328.213 277.544 328.277 277.292 328.404 277.07C328.536 276.843 328.731 276.663 328.991 276.531C329.255 276.393 329.58 276.325 329.966 276.325C330.352 276.325 330.675 276.393 330.934 276.531C331.193 276.663 331.389 276.843 331.521 277.07C331.653 277.292 331.72 277.544 331.72 277.824C331.72 278.088 331.653 278.329 331.521 278.546C331.389 278.763 331.196 278.937 330.942 279.069C331.265 279.191 331.497 279.366 331.64 279.593C331.788 279.82 331.862 280.082 331.862 280.378C331.862 280.669 331.796 280.934 331.664 281.172C331.537 281.41 331.333 281.6 331.053 281.743C330.778 281.886 330.416 281.957 329.966 281.957ZM329.966 281.378C330.352 281.378 330.643 281.288 330.839 281.108C331.035 280.928 331.133 280.682 331.133 280.37C331.133 280.064 331.035 279.82 330.839 279.641C330.643 279.461 330.352 279.371 329.966 279.371C329.58 279.371 329.287 279.461 329.086 279.641C328.89 279.82 328.792 280.064 328.792 280.37C328.792 280.682 328.89 280.928 329.086 281.108C329.287 281.288 329.58 281.378 329.966 281.378ZM329.966 278.792C330.289 278.792 330.543 278.71 330.728 278.546C330.913 278.377 331.006 278.141 331.006 277.84C331.006 277.544 330.913 277.314 330.728 277.15C330.543 276.986 330.289 276.904 329.966 276.904C329.644 276.904 329.39 276.986 329.205 277.15C329.02 277.314 328.927 277.544 328.927 277.84C328.927 278.141 329.02 278.377 329.205 278.546C329.39 278.71 329.644 278.792 329.966 278.792Z"
            fill="black" />
    </g>
    <g opacity="0.72">
        <path
            d="M354.408 281.957C354.043 281.957 353.728 281.899 353.464 281.782C353.204 281.661 353.006 281.486 352.869 281.259C352.736 281.026 352.67 280.735 352.67 280.386V280.148H353.424V280.426C353.424 280.712 353.508 280.931 353.678 281.084C353.847 281.232 354.09 281.307 354.408 281.307C354.73 281.307 354.976 281.203 355.145 280.997C355.32 280.791 355.407 280.484 355.407 280.077V276.42H356.161V280.037C356.161 280.466 356.092 280.823 355.955 281.108C355.817 281.394 355.616 281.608 355.352 281.751C355.092 281.888 354.778 281.957 354.408 281.957ZM358.664 281.957C358.262 281.957 357.94 281.854 357.697 281.648C357.453 281.441 357.332 281.082 357.332 280.569V277.689H358.03V280.474C358.03 280.648 358.051 280.791 358.093 280.902C358.136 281.013 358.196 281.1 358.276 281.164C358.355 281.227 358.448 281.272 358.553 281.299C358.664 281.325 358.783 281.338 358.91 281.338C359.111 281.338 359.296 281.291 359.466 281.195C359.635 281.1 359.772 280.963 359.878 280.783C359.989 280.598 360.045 280.384 360.045 280.14V277.689H360.743V281.862H360.18L360.116 281.235H360.061C359.95 281.404 359.823 281.542 359.68 281.648C359.542 281.753 359.386 281.83 359.212 281.878C359.043 281.931 358.86 281.957 358.664 281.957ZM361.826 281.862V277.689H362.389L362.453 278.316H362.508C362.619 278.146 362.744 278.009 362.881 277.903C363.024 277.797 363.18 277.721 363.349 277.673C363.524 277.62 363.709 277.594 363.904 277.594C364.169 277.594 364.399 277.639 364.595 277.729C364.796 277.819 364.952 277.964 365.063 278.165C365.179 278.366 365.237 278.638 365.237 278.982V281.862H364.539V279.077C364.539 278.903 364.515 278.76 364.468 278.649C364.425 278.538 364.365 278.451 364.285 278.387C364.211 278.324 364.119 278.279 364.008 278.252C363.902 278.226 363.783 278.213 363.651 278.213C363.455 278.213 363.27 278.26 363.095 278.355C362.921 278.451 362.781 278.588 362.675 278.768C362.574 278.948 362.524 279.162 362.524 279.41V281.862H361.826ZM367.938 281.862V281.267H369.311V277.499H367.93V277.054C368.126 277.038 368.327 277.009 368.533 276.967C368.745 276.925 368.951 276.859 369.152 276.769C369.353 276.674 369.535 276.552 369.699 276.404H370.017V281.267H371.31V281.862H367.938ZM373.725 281.957C373.339 281.957 373.024 281.883 372.781 281.735C372.538 281.587 372.361 281.386 372.25 281.132C372.139 280.878 372.083 280.593 372.083 280.275H372.797C372.797 280.518 372.831 280.722 372.9 280.886C372.974 281.05 373.083 281.172 373.225 281.251C373.368 281.33 373.548 281.37 373.765 281.37C374.087 281.37 374.333 281.288 374.503 281.124C374.677 280.955 374.799 280.712 374.868 280.394C374.936 280.077 374.973 279.699 374.979 279.26C374.91 279.376 374.807 279.487 374.669 279.593C374.532 279.693 374.37 279.775 374.185 279.839C374.005 279.897 373.812 279.926 373.606 279.926C373.215 279.926 372.892 279.849 372.638 279.696C372.384 279.537 372.194 279.323 372.067 279.054C371.945 278.784 371.885 278.482 371.885 278.149C371.885 277.779 371.964 277.459 372.123 277.189C372.281 276.914 372.498 276.703 372.773 276.555C373.048 276.401 373.358 276.325 373.701 276.325C374.013 276.325 374.294 276.369 374.542 276.459C374.791 276.549 375 276.695 375.169 276.896C375.344 277.097 375.476 277.369 375.566 277.713C375.656 278.051 375.7 278.474 375.7 278.982C375.7 279.537 375.656 280.005 375.566 280.386C375.481 280.767 375.354 281.074 375.185 281.307C375.016 281.534 374.807 281.701 374.558 281.806C374.315 281.907 374.037 281.957 373.725 281.957ZM373.749 279.347C374.008 279.347 374.222 279.291 374.392 279.18C374.566 279.069 374.696 278.921 374.78 278.736C374.865 278.551 374.907 278.345 374.907 278.117C374.907 277.895 374.865 277.694 374.78 277.514C374.701 277.329 374.574 277.184 374.399 277.078C374.23 276.967 374.016 276.912 373.757 276.912C373.498 276.912 373.284 276.97 373.114 277.086C372.945 277.197 372.818 277.345 372.734 277.53C372.654 277.715 372.615 277.924 372.615 278.157C372.615 278.374 372.654 278.572 372.734 278.752C372.813 278.932 372.934 279.077 373.098 279.188C373.268 279.294 373.485 279.347 373.749 279.347Z"
            fill="black" />
    </g>
    <g opacity="0.72">
        <path
            d="M398.261 281.957C397.897 281.957 397.582 281.899 397.317 281.782C397.058 281.661 396.86 281.486 396.722 281.259C396.59 281.026 396.524 280.735 396.524 280.386V280.148H397.278V280.426C397.278 280.712 397.362 280.931 397.532 281.084C397.701 281.232 397.944 281.307 398.261 281.307C398.584 281.307 398.83 281.203 398.999 280.997C399.174 280.791 399.261 280.484 399.261 280.077V276.42H400.015V280.037C400.015 280.466 399.946 280.823 399.808 281.108C399.671 281.394 399.47 281.608 399.206 281.751C398.946 281.888 398.632 281.957 398.261 281.957ZM402.518 281.957C402.116 281.957 401.794 281.854 401.55 281.648C401.307 281.441 401.186 281.082 401.186 280.569V277.689H401.884V280.474C401.884 280.648 401.905 280.791 401.947 280.902C401.989 281.013 402.05 281.1 402.13 281.164C402.209 281.227 402.301 281.272 402.407 281.299C402.518 281.325 402.637 281.338 402.764 281.338C402.965 281.338 403.15 281.291 403.32 281.195C403.489 281.1 403.626 280.963 403.732 280.783C403.843 280.598 403.899 280.384 403.899 280.14V277.689H404.597V281.862H404.034L403.97 281.235H403.915C403.803 281.404 403.677 281.542 403.534 281.648C403.396 281.753 403.24 281.83 403.066 281.878C402.896 281.931 402.714 281.957 402.518 281.957ZM405.68 281.862V277.689H406.243L406.307 278.316H406.362C406.473 278.146 406.597 278.009 406.735 277.903C406.878 277.797 407.034 277.721 407.203 277.673C407.378 277.62 407.563 277.594 407.758 277.594C408.023 277.594 408.253 277.639 408.448 277.729C408.649 277.819 408.805 277.964 408.917 278.165C409.033 278.366 409.091 278.638 409.091 278.982V281.862H408.393V279.077C408.393 278.903 408.369 278.76 408.322 278.649C408.279 278.538 408.218 278.451 408.139 278.387C408.065 278.324 407.972 278.279 407.861 278.252C407.756 278.226 407.637 278.213 407.504 278.213C407.309 278.213 407.124 278.26 406.949 278.355C406.775 278.451 406.634 278.588 406.529 278.768C406.428 278.948 406.378 279.162 406.378 279.41V281.862H405.68ZM411.657 281.862V281.632C411.657 281.41 411.699 281.206 411.784 281.021C411.874 280.831 411.99 280.659 412.133 280.505C412.281 280.347 412.448 280.196 412.633 280.053C412.818 279.91 413.006 279.77 413.196 279.633C413.455 279.453 413.693 279.273 413.91 279.093C414.132 278.913 414.309 278.72 414.442 278.514C414.574 278.303 414.64 278.067 414.64 277.808C414.64 277.644 414.6 277.496 414.521 277.364C414.447 277.226 414.333 277.118 414.18 277.038C414.026 276.959 413.831 276.92 413.593 276.92C413.312 276.92 413.088 276.967 412.918 277.062C412.749 277.157 412.625 277.284 412.546 277.443C412.472 277.602 412.435 277.776 412.435 277.967V278.292H411.744C411.739 278.265 411.734 278.226 411.729 278.173C411.723 278.115 411.721 278.049 411.721 277.975C411.721 277.583 411.808 277.269 411.982 277.031C412.157 276.787 412.39 276.61 412.68 276.499C412.971 276.383 413.286 276.325 413.625 276.325C413.926 276.325 414.185 276.367 414.402 276.451C414.619 276.531 414.799 276.642 414.941 276.785C415.084 276.927 415.19 277.091 415.259 277.276C415.327 277.456 415.362 277.647 415.362 277.848C415.362 278.096 415.317 278.324 415.227 278.53C415.142 278.736 415.021 278.929 414.862 279.109C414.709 279.284 414.526 279.453 414.315 279.617C414.108 279.781 413.884 279.947 413.64 280.117C413.471 280.228 413.305 280.347 413.141 280.474C412.977 280.595 412.836 280.719 412.72 280.846C412.604 280.973 412.53 281.095 412.498 281.211H415.394V281.862H411.657ZM418.038 281.957C417.742 281.957 417.478 281.915 417.245 281.83C417.012 281.74 416.814 281.589 416.65 281.378C416.486 281.161 416.362 280.873 416.277 280.513C416.193 280.148 416.15 279.691 416.15 279.141C416.15 278.591 416.193 278.136 416.277 277.776C416.362 277.411 416.486 277.123 416.65 276.912C416.814 276.695 417.012 276.544 417.245 276.459C417.478 276.369 417.742 276.325 418.038 276.325C418.335 276.325 418.596 276.369 418.824 276.459C419.056 276.544 419.255 276.695 419.419 276.912C419.583 277.123 419.707 277.411 419.792 277.776C419.876 278.136 419.918 278.591 419.918 279.141C419.918 279.691 419.876 280.148 419.792 280.513C419.707 280.873 419.583 281.161 419.419 281.378C419.255 281.589 419.056 281.74 418.824 281.83C418.596 281.915 418.335 281.957 418.038 281.957ZM418.038 281.37C418.34 281.37 418.573 281.293 418.736 281.14C418.906 280.987 419.022 280.759 419.086 280.458C419.154 280.156 419.189 279.781 419.189 279.331V278.966C419.189 278.511 419.154 278.133 419.086 277.832C419.022 277.525 418.906 277.295 418.736 277.142C418.573 276.988 418.34 276.912 418.038 276.912C417.737 276.912 417.502 276.988 417.332 277.142C417.163 277.295 417.044 277.522 416.975 277.824C416.912 278.125 416.88 278.503 416.88 278.958V279.315C416.88 279.765 416.912 280.143 416.975 280.45C417.044 280.756 417.163 280.987 417.332 281.14C417.502 281.293 417.737 281.37 418.038 281.37Z"
            fill="black" />
    </g>
    <g opacity="0.72">
        <path
            d="M443.115 281.957C442.75 281.957 442.436 281.899 442.171 281.782C441.912 281.661 441.714 281.486 441.576 281.259C441.444 281.026 441.378 280.735 441.378 280.386V280.148H442.132V280.426C442.132 280.712 442.216 280.931 442.386 281.084C442.555 281.232 442.798 281.307 443.115 281.307C443.438 281.307 443.684 281.203 443.853 280.997C444.028 280.791 444.115 280.484 444.115 280.077V276.42H444.869V280.037C444.869 280.466 444.8 280.823 444.662 281.108C444.525 281.394 444.324 281.608 444.059 281.751C443.8 281.888 443.486 281.957 443.115 281.957ZM447.372 281.957C446.97 281.957 446.648 281.854 446.404 281.648C446.161 281.441 446.039 281.082 446.039 280.569V277.689H446.738V280.474C446.738 280.648 446.759 280.791 446.801 280.902C446.843 281.013 446.904 281.1 446.983 281.164C447.063 281.227 447.155 281.272 447.261 281.299C447.372 281.325 447.491 281.338 447.618 281.338C447.819 281.338 448.004 281.291 448.173 281.195C448.343 281.1 448.48 280.963 448.586 280.783C448.697 280.598 448.753 280.384 448.753 280.14V277.689H449.451V281.862H448.887L448.824 281.235H448.768C448.657 281.404 448.53 281.542 448.388 281.648C448.25 281.753 448.094 281.83 447.92 281.878C447.75 281.931 447.568 281.957 447.372 281.957ZM450.534 281.862V277.689H451.097L451.16 278.316H451.216C451.327 278.146 451.451 278.009 451.589 277.903C451.732 277.797 451.888 277.721 452.057 277.673C452.231 277.62 452.417 277.594 452.612 277.594C452.877 277.594 453.107 277.639 453.302 277.729C453.503 277.819 453.659 277.964 453.77 278.165C453.887 278.366 453.945 278.638 453.945 278.982V281.862H453.247V279.077C453.247 278.903 453.223 278.76 453.175 278.649C453.133 278.538 453.072 278.451 452.993 278.387C452.919 278.324 452.826 278.279 452.715 278.252C452.61 278.226 452.491 278.213 452.358 278.213C452.163 278.213 451.978 278.26 451.803 278.355C451.628 278.451 451.488 278.588 451.383 278.768C451.282 278.948 451.232 279.162 451.232 279.41V281.862H450.534ZM456.511 281.862V281.632C456.511 281.41 456.553 281.206 456.638 281.021C456.728 280.831 456.844 280.659 456.987 280.505C457.135 280.347 457.302 280.196 457.487 280.053C457.672 279.91 457.86 279.77 458.05 279.633C458.309 279.453 458.547 279.273 458.764 279.093C458.986 278.913 459.163 278.72 459.296 278.514C459.428 278.303 459.494 278.067 459.494 277.808C459.494 277.644 459.454 277.496 459.375 277.364C459.301 277.226 459.187 277.118 459.034 277.038C458.88 276.959 458.685 276.92 458.447 276.92C458.166 276.92 457.942 276.967 457.772 277.062C457.603 277.157 457.479 277.284 457.399 277.443C457.325 277.602 457.288 277.776 457.288 277.967V278.292H456.598C456.593 278.265 456.588 278.226 456.582 278.173C456.577 278.115 456.574 278.049 456.574 277.975C456.574 277.583 456.662 277.269 456.836 277.031C457.011 276.787 457.243 276.61 457.534 276.499C457.825 276.383 458.14 276.325 458.478 276.325C458.78 276.325 459.039 276.367 459.256 276.451C459.473 276.531 459.652 276.642 459.795 276.785C459.938 276.927 460.044 277.091 460.113 277.276C460.181 277.456 460.216 277.647 460.216 277.848C460.216 278.096 460.171 278.324 460.081 278.53C459.996 278.736 459.875 278.929 459.716 279.109C459.563 279.284 459.38 279.453 459.169 279.617C458.962 279.781 458.738 279.947 458.494 280.117C458.325 280.228 458.158 280.347 457.994 280.474C457.831 280.595 457.69 280.719 457.574 280.846C457.458 280.973 457.384 281.095 457.352 281.211H460.247V281.862H456.511ZM461.147 281.862V281.267H462.519V277.499H461.139V277.054C461.335 277.038 461.536 277.009 461.742 276.967C461.953 276.925 462.16 276.859 462.361 276.769C462.562 276.674 462.744 276.552 462.908 276.404H463.225V281.267H464.519V281.862H461.147Z"
            fill="black" />
    </g>
    <g opacity="0.72">
        <path
            d="M29.3216 18.6727C28.9408 18.6727 28.6076 18.6013 28.322 18.4585C28.0364 18.3157 27.8143 18.112 27.6556 17.8476C27.497 17.5779 27.4177 17.2579 27.4177 16.8877H28.1237C28.1237 17.1363 28.1766 17.3505 28.2824 17.5303C28.3881 17.7101 28.5309 17.8476 28.7107 17.9428C28.8959 18.038 29.0995 18.0856 29.3216 18.0856C29.549 18.0856 29.75 18.0406 29.9245 17.9507C30.099 17.8555 30.2339 17.7127 30.3291 17.5224C30.4296 17.332 30.4798 17.0913 30.4798 16.8004C30.4798 16.536 30.4349 16.3192 30.345 16.1499C30.2551 15.9754 30.1255 15.8458 29.9562 15.7612C29.7923 15.6766 29.6019 15.6343 29.3851 15.6343C29.2264 15.6343 29.0757 15.6607 28.9329 15.7136C28.7901 15.7612 28.6605 15.83 28.5441 15.9199C28.4331 16.0098 28.3405 16.1208 28.2665 16.2531L27.608 16.1499L27.8381 13.1354H30.9241L30.9241 13.7859H28.449L28.322 15.4835C28.4119 15.4042 28.5124 15.3328 28.6235 15.2694C28.7398 15.2006 28.8721 15.1477 29.0201 15.1107C29.1682 15.0684 29.3375 15.0472 29.5279 15.0472C29.8399 15.0472 30.1228 15.108 30.3767 15.2297C30.6306 15.3513 30.8315 15.5391 30.9796 15.7929C31.1277 16.0468 31.2017 16.3747 31.2017 16.7766C31.2017 17.1733 31.125 17.5144 30.9717 17.8C30.8236 18.0856 30.6094 18.3024 30.3291 18.4505C30.0488 18.5986 29.713 18.6727 29.3216 18.6727ZM33.8299 18.6727C33.3803 18.6727 33.0154 18.6013 32.7351 18.4585C32.4548 18.3157 32.2486 18.1253 32.1163 17.8873C31.9894 17.6493 31.9259 17.3848 31.9259 17.094C31.9259 16.7978 32 16.536 32.1481 16.3086C32.2962 16.0812 32.5289 15.9066 32.8462 15.785C32.5923 15.6528 32.3993 15.4783 32.2671 15.2614C32.1401 15.0446 32.0767 14.8039 32.0767 14.5395C32.0767 14.2592 32.1401 14.008 32.2671 13.7859C32.3993 13.5585 32.595 13.3786 32.8541 13.2464C33.1185 13.1089 33.4438 13.0402 33.8299 13.0402C34.216 13.0402 34.5386 13.1089 34.7977 13.2464C35.0569 13.3786 35.2525 13.5585 35.3848 13.7859C35.517 14.008 35.5831 14.2592 35.5831 14.5395C35.5831 14.8039 35.517 15.0446 35.3848 15.2614C35.2525 15.4783 35.0595 15.6528 34.8057 15.785C35.1283 15.9066 35.361 16.0812 35.5038 16.3086C35.6518 16.536 35.7259 16.7978 35.7259 17.094C35.7259 17.3848 35.6598 17.6493 35.5276 17.8873C35.4006 18.1253 35.197 18.3157 34.9167 18.4585C34.6417 18.6013 34.2794 18.6727 33.8299 18.6727ZM33.8299 18.0935C34.216 18.0935 34.5068 18.0036 34.7025 17.8238C34.8982 17.644 34.996 17.3981 34.996 17.086C34.996 16.7793 34.8982 16.536 34.7025 16.3562C34.5068 16.1764 34.216 16.0865 33.8299 16.0865C33.4438 16.0865 33.1503 16.1764 32.9493 16.3562C32.7536 16.536 32.6558 16.7793 32.6558 17.086C32.6558 17.3981 32.7536 17.644 32.9493 17.8238C33.1503 18.0036 33.4438 18.0935 33.8299 18.0935ZM33.8299 15.5073C34.1525 15.5073 34.4064 15.4254 34.5915 15.2614C34.7766 15.0922 34.8691 14.8568 34.8691 14.5554C34.8691 14.2592 34.7766 14.0291 34.5915 13.8652C34.4064 13.7012 34.1525 13.6193 33.8299 13.6193C33.5073 13.6193 33.2534 13.7012 33.0683 13.8652C32.8832 14.0291 32.7906 14.2592 32.7906 14.5554C32.7906 14.8568 32.8832 15.0922 33.0683 15.2614C33.2534 15.4254 33.5073 15.5073 33.8299 15.5073Z"
            fill="black" />
    </g>
    <g opacity="0.72">
        <path
            d="M29.3216 46.7512C28.9408 46.7512 28.6076 46.6798 28.322 46.537C28.0364 46.3942 27.8143 46.1906 27.6556 45.9262C27.497 45.6564 27.4177 45.3365 27.4177 44.9663H28.1237C28.1237 45.2148 28.1766 45.429 28.2824 45.6088C28.3881 45.7887 28.5309 45.9262 28.7107 46.0214C28.8959 46.1166 29.0995 46.1642 29.3216 46.1642C29.549 46.1642 29.75 46.1192 29.9245 46.0293C30.099 45.9341 30.2339 45.7913 30.3291 45.6009C30.4296 45.4105 30.4798 45.1699 30.4798 44.879C30.4798 44.6146 30.4349 44.3977 30.345 44.2285C30.2551 44.054 30.1255 43.9244 29.9562 43.8398C29.7923 43.7551 29.6019 43.7128 29.3851 43.7128C29.2264 43.7128 29.0757 43.7393 28.9329 43.7922C28.7901 43.8398 28.6605 43.9085 28.5441 43.9984C28.4331 44.0883 28.3405 44.1994 28.2665 44.3316L27.608 44.2285L27.8381 41.2139H30.9241L30.9241 41.8644H28.449L28.322 43.5621C28.4119 43.4828 28.5124 43.4114 28.6235 43.3479C28.7398 43.2792 28.8721 43.2263 29.0201 43.1892C29.1682 43.1469 29.3375 43.1258 29.5279 43.1258C29.8399 43.1258 30.1228 43.1866 30.3767 43.3082C30.6306 43.4299 30.8315 43.6176 30.9796 43.8715C31.1277 44.1253 31.2017 44.4533 31.2017 44.8552C31.2017 45.2518 31.125 45.593 30.9717 45.8786C30.8236 46.1642 30.6094 46.381 30.3291 46.5291C30.0488 46.6772 29.713 46.7512 29.3216 46.7512ZM33.933 46.7512C33.621 46.7512 33.3407 46.7062 33.0921 46.6163C32.8488 46.5264 32.6399 46.381 32.4654 46.18C32.2962 45.979 32.1666 45.7093 32.0767 45.3708C31.9868 45.0271 31.9418 44.6013 31.9418 44.0936C31.9418 43.533 31.9868 43.065 32.0767 42.6895C32.1666 42.3087 32.2935 42.0046 32.4575 41.7772C32.6267 41.5445 32.833 41.3779 33.0762 41.2774C33.3248 41.1716 33.6051 41.1187 33.9171 41.1187C34.3085 41.1187 34.6232 41.1928 34.8612 41.3408C35.1045 41.4889 35.2816 41.6899 35.3927 41.9437C35.5038 42.1923 35.5593 42.4779 35.5593 42.8005H34.8453C34.8453 42.5572 34.8109 42.3536 34.7422 42.1897C34.6734 42.0257 34.565 41.9041 34.4169 41.8248C34.2741 41.7454 34.0943 41.7058 33.8775 41.7058C33.5602 41.7058 33.3116 41.7904 33.1318 41.9596C32.9572 42.1236 32.8356 42.3642 32.7668 42.6815C32.7034 42.9989 32.669 43.377 32.6637 43.816C32.7378 43.6943 32.8409 43.5833 32.9731 43.4828C33.1106 43.3823 33.2719 43.303 33.457 43.2448C33.6421 43.1813 33.8378 43.1496 34.0441 43.1496C34.4354 43.1496 34.7581 43.2289 35.0119 43.3876C35.2658 43.5409 35.4535 43.7525 35.5752 44.0222C35.6968 44.2919 35.7576 44.5934 35.7576 44.9266C35.7576 45.2915 35.6783 45.6115 35.5196 45.8865C35.361 46.1615 35.1441 46.3757 34.8691 46.5291C34.5941 46.6772 34.2821 46.7512 33.933 46.7512ZM33.8854 46.1642C34.1446 46.1642 34.3588 46.1086 34.528 45.9976C34.6972 45.8812 34.8215 45.7305 34.9008 45.5454C34.9855 45.355 35.0278 45.1461 35.0278 44.9187C35.0278 44.7018 34.9881 44.5035 34.9088 44.3237C34.8295 44.1439 34.7052 44.0011 34.5359 43.8953C34.372 43.7842 34.1604 43.7287 33.9013 43.7287C33.6421 43.7287 33.4253 43.7842 33.2508 43.8953C33.0762 44.0064 32.9467 44.1544 32.862 44.3395C32.7774 44.5194 32.7351 44.7256 32.7351 44.9583C32.7351 45.1752 32.7774 45.3761 32.862 45.5612C32.9467 45.7463 33.0736 45.8944 33.2428 46.0055C33.4121 46.1113 33.6263 46.1642 33.8854 46.1642Z"
            fill="black" />
    </g>
    <g opacity="0.72">
        <path
            d="M30.3216 74.8297C29.9408 74.8297 29.6076 74.7583 29.322 74.6155C29.0364 74.4728 28.8143 74.2691 28.6556 74.0047C28.497 73.735 28.4177 73.415 28.4177 73.0448H29.1237C29.1237 73.2934 29.1766 73.5076 29.2824 73.6874C29.3881 73.8672 29.5309 74.0047 29.7107 74.0999C29.8959 74.1951 30.0995 74.2427 30.3216 74.2427C30.549 74.2427 30.75 74.1977 30.9245 74.1078C31.099 74.0126 31.2339 73.8698 31.3291 73.6794C31.4296 73.489 31.4798 73.2484 31.4798 72.9575C31.4798 72.6931 31.4349 72.4763 31.345 72.307C31.2551 72.1325 31.1255 72.0029 30.9562 71.9183C30.7923 71.8337 30.6019 71.7914 30.3851 71.7914C30.2264 71.7914 30.0757 71.8178 29.9329 71.8707C29.7901 71.9183 29.6605 71.987 29.5441 72.077C29.4331 72.1669 29.3405 72.2779 29.2665 72.4101L28.608 72.307L28.8381 69.2924H31.9241L31.9241 69.943H29.449L29.322 71.6406C29.4119 71.5613 29.5124 71.4899 29.6235 71.4264C29.7398 71.3577 29.8721 71.3048 30.0201 71.2678C30.1682 71.2255 30.3375 71.2043 30.5279 71.2043C30.8399 71.2043 31.1228 71.2651 31.3767 71.3868C31.6306 71.5084 31.8315 71.6962 31.9796 71.95C32.1277 72.2039 32.2017 72.5318 32.2017 72.9337C32.2017 73.3304 32.125 73.6715 31.9717 73.9571C31.8236 74.2427 31.6094 74.4595 31.3291 74.6076C31.0488 74.7557 30.713 74.8297 30.3216 74.8297ZM35.3059 74.7345L35.3059 73.4018H32.7752L32.7752 72.8147C32.9973 72.4339 33.1983 72.0505 33.3781 71.6644C33.5632 71.2784 33.7272 70.8817 33.87 70.4745C34.0181 70.0672 34.1397 69.6415 34.2349 69.1972H34.9806C34.9119 69.4881 34.8272 69.7869 34.7268 70.0937C34.6263 70.3951 34.5152 70.6887 34.3936 70.9743C34.2719 71.2598 34.1503 71.5269 34.0286 71.7755C33.9123 72.0241 33.8012 72.2383 33.6954 72.4181C33.595 72.5979 33.513 72.7301 33.4495 72.8147H35.3059L35.3059 71.0853C35.3376 71.0007 35.3693 70.9134 35.4011 70.8235C35.4381 70.7283 35.4725 70.6331 35.5042 70.5379C35.5359 70.4375 35.565 70.3449 35.5915 70.2603C35.6179 70.1704 35.6391 70.0858 35.6549 70.0064H36.004L36.004 72.8147H36.7259L36.7259 73.4018H36.004L36.004 74.7345H35.3059Z"
            fill="black" />
    </g>
    <g opacity="0.72">
        <path
            d="M29.3216 102.908C28.9408 102.908 28.6076 102.837 28.322 102.694C28.0364 102.551 27.8143 102.348 27.6556 102.083C27.497 101.814 27.4177 101.494 27.4177 101.123H28.1237C28.1237 101.372 28.1766 101.586 28.2824 101.766C28.3881 101.946 28.5309 102.083 28.7107 102.178C28.8959 102.274 29.0995 102.321 29.3216 102.321C29.549 102.321 29.75 102.276 29.9245 102.186C30.099 102.091 30.2339 101.948 30.3291 101.758C30.4296 101.568 30.4798 101.327 30.4798 101.036C30.4798 100.772 30.4349 100.555 30.345 100.386C30.2551 100.211 30.1255 100.081 29.9562 99.9968C29.7923 99.9122 29.6019 99.8699 29.3851 99.8699C29.2264 99.8699 29.0757 99.8964 28.9329 99.9492C28.7901 99.9968 28.6605 100.066 28.5441 100.156C28.4331 100.245 28.3405 100.356 28.2665 100.489L27.608 100.386L27.8381 97.371H30.9241L30.9241 98.0215H28.449L28.322 99.7192C28.4119 99.6399 28.5124 99.5685 28.6235 99.505C28.7398 99.4362 28.8721 99.3833 29.0201 99.3463C29.1682 99.304 29.3375 99.2829 29.5279 99.2829C29.8399 99.2829 30.1228 99.3437 30.3767 99.4653C30.6306 99.587 30.8315 99.7747 30.9796 100.029C31.1277 100.282 31.2017 100.61 31.2017 101.012C31.2017 101.409 31.125 101.75 30.9717 102.036C30.8236 102.321 30.6094 102.538 30.3291 102.686C30.0488 102.834 29.713 102.908 29.3216 102.908ZM31.9497 102.813L31.9497 102.583C31.9497 102.361 31.992 102.157 32.0767 101.972C32.1666 101.782 32.2829 101.61 32.4257 101.457C32.5738 101.298 32.7404 101.147 32.9255 101.004C33.1106 100.862 33.2984 100.721 33.4888 100.584C33.7479 100.404 33.9859 100.224 34.2027 100.044C34.4249 99.8646 34.602 99.6716 34.7343 99.4653C34.8665 99.2538 34.9326 99.0184 34.9326 98.7593C34.9326 98.5953 34.8929 98.4472 34.8136 98.315C34.7395 98.1775 34.6258 98.0691 34.4725 97.9898C34.3191 97.9104 34.1234 97.8708 33.8854 97.8708C33.6051 97.8708 33.3803 97.9184 33.2111 98.0136C33.0419 98.1088 32.9176 98.2357 32.8382 98.3944C32.7642 98.553 32.7272 98.7275 32.7272 98.9179L32.7272 99.2432H32.037C32.0317 99.2168 32.0264 99.1771 32.0211 99.1242C32.0158 99.066 32.0132 98.9999 32.0132 98.9259C32.0132 98.5345 32.1005 98.2198 32.275 97.9818C32.4495 97.7386 32.6822 97.5614 32.9731 97.4503C33.264 97.334 33.5787 97.2758 33.9171 97.2758C34.2186 97.2758 34.4778 97.3181 34.6946 97.4027C34.9114 97.482 35.0912 97.5931 35.234 97.7359C35.3768 97.8787 35.4826 98.0427 35.5514 98.2278C35.6201 98.4076 35.6545 98.598 35.6545 98.7989C35.6545 99.0475 35.6095 99.2749 35.5196 99.4812C35.435 99.6874 35.3134 99.8805 35.1547 100.06C35.0013 100.235 34.8189 100.404 34.6073 100.568C34.4011 100.732 34.1763 100.899 33.933 101.068C33.7638 101.179 33.5972 101.298 33.4332 101.425C33.2693 101.546 33.1291 101.671 33.0128 101.798C32.8964 101.925 32.8224 102.046 32.7906 102.163H35.6862L35.6862 102.813H31.9497Z"
            fill="black" />
    </g>
    <g opacity="0.72">
        <path
            d="M29.3216 130.987C28.9408 130.987 28.6076 130.915 28.322 130.773C28.0364 130.63 27.8143 130.426 27.6556 130.162C27.497 129.892 27.4177 129.572 27.4177 129.202H28.1237C28.1237 129.45 28.1766 129.665 28.2824 129.844C28.3881 130.024 28.5309 130.162 28.7107 130.257C28.8959 130.352 29.0995 130.4 29.3216 130.4C29.549 130.4 29.75 130.355 29.9245 130.265C30.099 130.17 30.2339 130.027 30.3291 129.837C30.4296 129.646 30.4798 129.405 30.4798 129.115C30.4798 128.85 30.4349 128.633 30.345 128.464C30.2551 128.29 30.1255 128.16 29.9562 128.075C29.7923 127.991 29.6019 127.948 29.3851 127.948C29.2264 127.948 29.0757 127.975 28.9329 128.028C28.7901 128.075 28.6605 128.144 28.5441 128.234C28.4331 128.324 28.3405 128.435 28.2665 128.567L27.608 128.464L27.8381 125.45H30.9241L30.9241 126.1H28.449L28.322 127.798C28.4119 127.718 28.5124 127.647 28.6235 127.584C28.7398 127.515 28.8721 127.462 29.0201 127.425C29.1682 127.383 29.3375 127.361 29.5279 127.361C29.8399 127.361 30.1228 127.422 30.3767 127.544C30.6306 127.666 30.8315 127.853 30.9796 128.107C31.1277 128.361 31.2017 128.689 31.2017 129.091C31.2017 129.487 31.125 129.829 30.9717 130.114C30.8236 130.4 30.6094 130.617 30.3291 130.765C30.0488 130.913 29.713 130.987 29.3216 130.987ZM33.8299 130.987C33.5337 130.987 33.2693 130.945 33.0366 130.86C32.8039 130.77 32.6055 130.619 32.4416 130.408C32.2776 130.191 32.1534 129.903 32.0687 129.543C31.9841 129.178 31.9418 128.721 31.9418 128.171C31.9418 127.621 31.9841 127.166 32.0687 126.806C32.1534 126.441 32.2776 126.153 32.4416 125.941C32.6055 125.725 32.8039 125.574 33.0366 125.489C33.2693 125.399 33.5337 125.354 33.8299 125.354C34.1261 125.354 34.3878 125.399 34.6153 125.489C34.848 125.574 35.0463 125.725 35.2102 125.941C35.3742 126.153 35.4985 126.441 35.5831 126.806C35.6677 127.166 35.71 127.621 35.71 128.171C35.71 128.721 35.6677 129.178 35.5831 129.543C35.4985 129.903 35.3742 130.191 35.2102 130.408C35.0463 130.619 34.848 130.77 34.6153 130.86C34.3878 130.945 34.1261 130.987 33.8299 130.987ZM33.8299 130.4C34.1313 130.4 34.364 130.323 34.528 130.17C34.6972 130.016 34.8136 129.789 34.877 129.487C34.9458 129.186 34.9802 128.811 34.9802 128.361L34.9802 127.996C34.9802 127.541 34.9458 127.163 34.877 126.862C34.8136 126.555 34.6972 126.325 34.528 126.171C34.364 126.018 34.1313 125.941 33.8299 125.941C33.5284 125.941 33.2931 126.018 33.1238 126.171C32.9546 126.325 32.8356 126.552 32.7668 126.854C32.7034 127.155 32.6717 127.533 32.6717 127.988L32.6717 128.345C32.6717 128.795 32.7034 129.173 32.7668 129.48C32.8356 129.786 32.9546 130.016 33.1238 130.17C33.2931 130.323 33.5284 130.4 33.8299 130.4Z"
            fill="black" />
    </g>
    <g opacity="0.72">
        <path
            d="M30.7738 158.97L30.7738 157.637H28.2431L28.2431 157.05C28.4652 156.67 28.6662 156.286 28.846 155.9C29.0311 155.514 29.1951 155.117 29.3379 154.71C29.486 154.303 29.6076 153.877 29.7028 153.433H30.4485C30.3798 153.724 30.2951 154.023 30.1947 154.329C30.0942 154.631 29.9831 154.924 29.8615 155.21C29.7398 155.495 29.6182 155.763 29.4966 156.011C29.3802 156.26 29.2691 156.474 29.1634 156.654C29.0629 156.834 28.9809 156.966 28.9174 157.05H30.7738L30.7738 155.321C30.8055 155.236 30.8372 155.149 30.869 155.059C30.906 154.964 30.9404 154.869 30.9721 154.774C31.0038 154.673 31.0329 154.581 31.0594 154.496C31.0858 154.406 31.107 154.321 31.1228 154.242H31.4719L31.4719 157.05H32.1938L32.1938 157.637H31.4719L31.4719 158.97H30.7738ZM34.6982 159.065C34.2486 159.065 33.8837 158.994 33.6034 158.851C33.3231 158.708 33.1169 158.518 32.9846 158.28C32.8577 158.042 32.7942 157.778 32.7942 157.487C32.7942 157.191 32.8683 156.929 33.0164 156.701C33.1644 156.474 33.3972 156.299 33.7145 156.178C33.4606 156.046 33.2676 155.871 33.1354 155.654C33.0084 155.437 32.945 155.197 32.945 154.932C32.945 154.652 33.0084 154.401 33.1354 154.179C33.2676 153.951 33.4633 153.771 33.7224 153.639C33.9868 153.502 34.3121 153.433 34.6982 153.433C35.0843 153.433 35.4069 153.502 35.666 153.639C35.9252 153.771 36.1208 153.951 36.2531 154.179C36.3853 154.401 36.4514 154.652 36.4514 154.932C36.4514 155.197 36.3853 155.437 36.2531 155.654C36.1208 155.871 35.9278 156.046 35.674 156.178C35.9966 156.299 36.2293 156.474 36.3721 156.701C36.5201 156.929 36.5942 157.191 36.5942 157.487C36.5942 157.778 36.5281 158.042 36.3959 158.28C36.2689 158.518 36.0653 158.708 35.785 158.851C35.51 158.994 35.1477 159.065 34.6982 159.065ZM34.6982 158.486C35.0843 158.486 35.3751 158.396 35.5708 158.217C35.7665 158.037 35.8643 157.791 35.8643 157.479C35.8643 157.172 35.7665 156.929 35.5708 156.749C35.3751 156.569 35.0843 156.479 34.6982 156.479C34.3121 156.479 34.0186 156.569 33.8176 156.749C33.6219 156.929 33.5241 157.172 33.5241 157.479C33.5241 157.791 33.6219 158.037 33.8176 158.217C34.0186 158.396 34.3121 158.486 34.6982 158.486ZM34.6982 155.9C35.0208 155.9 35.2747 155.818 35.4598 155.654C35.6449 155.485 35.7374 155.25 35.7374 154.948C35.7374 154.652 35.6449 154.422 35.4598 154.258C35.2747 154.094 35.0208 154.012 34.6982 154.012C34.3756 154.012 34.1217 154.094 33.9366 154.258C33.7515 154.422 33.6589 154.652 33.6589 154.948C33.6589 155.25 33.7515 155.485 33.9366 155.654C34.1217 155.818 34.3756 155.9 34.6982 155.9Z"
            fill="black" />
    </g>
    <g opacity="0.72">
        <path
            d="M30.7738 187.049L30.7738 185.716H28.2431L28.2431 185.129C28.4652 184.748 28.6662 184.365 28.846 183.979C29.0311 183.593 29.1951 183.196 29.3379 182.789C29.486 182.381 29.6076 181.956 29.7028 181.511H30.4485C30.3798 181.802 30.2951 182.101 30.1947 182.408C30.0942 182.709 29.9831 183.003 29.8615 183.288C29.7398 183.574 29.6182 183.841 29.4966 184.09C29.3802 184.338 29.2691 184.552 29.1634 184.732C29.0629 184.912 28.9809 185.044 28.9174 185.129H30.7738L30.7738 183.4C30.8055 183.315 30.8372 183.228 30.869 183.138C30.906 183.043 30.9404 182.947 30.9721 182.852C31.0038 182.752 31.0329 182.659 31.0594 182.574C31.0858 182.485 31.107 182.4 31.1228 182.321H31.4719L31.4719 185.129H32.1938L32.1938 185.716H31.4719L31.4719 187.049H30.7738ZM34.8013 187.144C34.4893 187.144 34.209 187.099 33.9604 187.009C33.7171 186.919 33.5082 186.774 33.3337 186.573C33.1644 186.372 33.0349 186.102 32.945 185.764C32.8551 185.42 32.8101 184.994 32.8101 184.486C32.8101 183.926 32.8551 183.458 32.945 183.082C33.0349 182.701 33.1618 182.397 33.3258 182.17C33.495 181.937 33.7013 181.771 33.9445 181.67C34.1931 181.564 34.4734 181.511 34.7854 181.511C35.1768 181.511 35.4915 181.585 35.7295 181.734C35.9728 181.882 36.1499 182.083 36.261 182.336C36.3721 182.585 36.4276 182.871 36.4276 183.193H35.7136C35.7136 182.95 35.6792 182.746 35.6105 182.582C35.5417 182.418 35.4333 182.297 35.2852 182.217C35.1424 182.138 34.9626 182.098 34.7458 182.098C34.4285 182.098 34.1799 182.183 34.0001 182.352C33.8255 182.516 33.7039 182.757 33.6351 183.074C33.5717 183.392 33.5373 183.77 33.532 184.209C33.6061 184.087 33.7092 183.976 33.8414 183.876C33.9789 183.775 34.1402 183.696 34.3253 183.638C34.5104 183.574 34.7061 183.542 34.9124 183.542C35.3037 183.542 35.6264 183.622 35.8802 183.78C36.1341 183.934 36.3218 184.145 36.4435 184.415C36.5651 184.685 36.6259 184.986 36.6259 185.319C36.6259 185.684 36.5466 186.004 36.3879 186.279C36.2293 186.554 36.0124 186.768 35.7374 186.922C35.4624 187.07 35.1504 187.144 34.8013 187.144ZM34.7537 186.557C35.0129 186.557 35.2271 186.501 35.3963 186.39C35.5655 186.274 35.6898 186.123 35.7691 185.938C35.8538 185.748 35.8961 185.539 35.8961 185.311C35.8961 185.095 35.8564 184.896 35.7771 184.716C35.6977 184.537 35.5735 184.394 35.4042 184.288C35.2403 184.177 35.0287 184.121 34.7696 184.121C34.5104 184.121 34.2936 184.177 34.1191 184.288C33.9445 184.399 33.815 184.547 33.7303 184.732C33.6457 184.912 33.6034 185.118 33.6034 185.351C33.6034 185.568 33.6457 185.769 33.7303 185.954C33.815 186.139 33.9419 186.287 34.1111 186.398C34.2804 186.504 34.4946 186.557 34.7537 186.557Z"
            fill="black" />
    </g>
    <g opacity="0.72">
        <path
            d="M30.7738 215.127L30.7738 213.795H28.2431L28.2431 213.207C28.4652 212.827 28.6662 212.443 28.846 212.057C29.0311 211.671 29.1951 211.274 29.3379 210.867C29.486 210.46 29.6076 210.034 29.7028 209.59H30.4485C30.3798 209.881 30.2951 210.18 30.1947 210.486C30.0942 210.788 29.9831 211.081 29.8615 211.367C29.7398 211.653 29.6182 211.92 29.4966 212.168C29.3802 212.417 29.2691 212.631 29.1634 212.811C29.0629 212.991 28.9809 213.123 28.9174 213.207H30.7738L30.7738 211.478C30.8055 211.393 30.8372 211.306 30.869 211.216C30.906 211.121 30.9404 211.026 30.9721 210.931C31.0038 210.83 31.0329 210.738 31.0594 210.653C31.0858 210.563 31.107 210.478 31.1228 210.399H31.4719L31.4719 213.207H32.1938L32.1938 213.795H31.4719L31.4719 215.127H30.7738ZM35.1742 215.127L35.1742 213.795H32.6435L32.6435 213.207C32.8656 212.827 33.0666 212.443 33.2464 212.057C33.4315 211.671 33.5955 211.274 33.7383 210.867C33.8864 210.46 34.008 210.034 34.1032 209.59H34.8489C34.7802 209.881 34.6955 210.18 34.595 210.486C34.4946 210.788 34.3835 211.081 34.2619 211.367C34.1402 211.653 34.0186 211.92 33.8969 212.168C33.7806 212.417 33.6695 212.631 33.5637 212.811C33.4633 212.991 33.3813 213.123 33.3178 213.207H35.1742L35.1742 211.478C35.2059 211.393 35.2376 211.306 35.2694 211.216C35.3064 211.121 35.3408 211.026 35.3725 210.931C35.4042 210.83 35.4333 210.738 35.4598 210.653C35.4862 210.563 35.5074 210.478 35.5232 210.399H35.8723L35.8723 213.207H36.5942L36.5942 213.795H35.8723L35.8723 215.127H35.1742Z"
            fill="black" />
    </g>
    <g opacity="0.72">
        <path
            d="M30.7738 243.206L30.7738 241.873H28.2431L28.2431 241.286C28.4652 240.905 28.6662 240.522 28.846 240.136C29.0311 239.75 29.1951 239.353 29.3379 238.946C29.486 238.539 29.6076 238.113 29.7028 237.669H30.4485C30.3798 237.959 30.2951 238.258 30.1947 238.565C30.0942 238.866 29.9831 239.16 29.8615 239.446C29.7398 239.731 29.6182 239.998 29.4966 240.247C29.3802 240.495 29.2691 240.71 29.1634 240.889C29.0629 241.069 28.9809 241.201 28.9174 241.286H30.7738L30.7738 239.557C30.8055 239.472 30.8372 239.385 30.869 239.295C30.906 239.2 30.9404 239.104 30.9721 239.009C31.0038 238.909 31.0329 238.816 31.0594 238.732C31.0858 238.642 31.107 238.557 31.1228 238.478H31.4719L31.4719 241.286H32.1938L32.1938 241.873H31.4719L31.4719 243.206H30.7738ZM32.818 243.206L32.818 242.976C32.818 242.754 32.8603 242.55 32.945 242.365C33.0349 242.175 33.1512 242.003 33.294 241.849C33.4421 241.691 33.6087 241.54 33.7938 241.397C33.9789 241.254 34.1667 241.114 34.3571 240.977C34.6162 240.797 34.8542 240.617 35.071 240.437C35.2932 240.257 35.4703 240.064 35.6026 239.858C35.7348 239.647 35.8009 239.411 35.8009 239.152C35.8009 238.988 35.7612 238.84 35.6819 238.708C35.6078 238.57 35.4941 238.462 35.3408 238.383C35.1874 238.303 34.9917 238.264 34.7537 238.264C34.4734 238.264 34.2486 238.311 34.0794 238.406C33.9102 238.502 33.7859 238.628 33.7065 238.787C33.6325 238.946 33.5955 239.12 33.5955 239.311L33.5955 239.636H32.9053C32.9 239.61 32.8947 239.57 32.8894 239.517C32.8841 239.459 32.8815 239.393 32.8815 239.319C32.8815 238.927 32.9688 238.613 33.1433 238.375C33.3178 238.131 33.5505 237.954 33.8414 237.843C34.1323 237.727 34.447 237.669 34.7854 237.669C35.0869 237.669 35.346 237.711 35.5629 237.795C35.7797 237.875 35.9595 237.986 36.1023 238.129C36.2451 238.271 36.3509 238.435 36.4197 238.621C36.4884 238.8 36.5228 238.991 36.5228 239.192C36.5228 239.44 36.4778 239.668 36.3879 239.874C36.3033 240.08 36.1817 240.273 36.023 240.453C35.8696 240.628 35.6872 240.797 35.4756 240.961C35.2694 241.125 35.0446 241.291 34.8013 241.461C34.6321 241.572 34.4655 241.691 34.3015 241.818C34.1376 241.939 33.9974 242.063 33.8811 242.19C33.7647 242.317 33.6907 242.439 33.6589 242.555H36.5545L36.5545 243.206H32.818Z"
            fill="black" />
    </g>
    <g opacity="0.72">
        <path
            d="M30.7738 271.284L30.7738 269.952H28.2431L28.2431 269.365C28.4652 268.984 28.6662 268.6 28.846 268.214C29.0311 267.828 29.1951 267.432 29.3379 267.024C29.486 266.617 29.6076 266.191 29.7028 265.747H30.4485C30.3798 266.038 30.2951 266.337 30.1947 266.644C30.0942 266.945 29.9831 267.239 29.8615 267.524C29.7398 267.81 29.6182 268.077 29.4966 268.325C29.3802 268.574 29.2691 268.788 29.1634 268.968C29.0629 269.148 28.9809 269.28 28.9174 269.365H30.7738L30.7738 267.635C30.8055 267.551 30.8372 267.463 30.869 267.373C30.906 267.278 30.9404 267.183 30.9721 267.088C31.0038 266.987 31.0329 266.895 31.0594 266.81C31.0858 266.72 31.107 266.636 31.1228 266.556H31.4719L31.4719 269.365H32.1938L32.1938 269.952H31.4719L31.4719 271.284H30.7738ZM34.6982 271.38C34.402 271.38 34.1376 271.337 33.9049 271.253C33.6722 271.163 33.4738 271.012 33.3099 270.8C33.1459 270.584 33.0217 270.295 32.937 269.936C32.8524 269.571 32.8101 269.113 32.8101 268.563C32.8101 268.013 32.8524 267.558 32.937 267.199C33.0217 266.834 33.1459 266.546 33.3099 266.334C33.4738 266.117 33.6722 265.967 33.9049 265.882C34.1376 265.792 34.402 265.747 34.6982 265.747C34.9943 265.747 35.2561 265.792 35.4836 265.882C35.7163 265.967 35.9146 266.117 36.0785 266.334C36.2425 266.546 36.3668 266.834 36.4514 267.199C36.536 267.558 36.5783 268.013 36.5783 268.563C36.5783 269.113 36.536 269.571 36.4514 269.936C36.3668 270.295 36.2425 270.584 36.0785 270.8C35.9146 271.012 35.7163 271.163 35.4836 271.253C35.2561 271.337 34.9943 271.38 34.6982 271.38ZM34.6982 270.793C34.9996 270.793 35.2323 270.716 35.3963 270.562C35.5655 270.409 35.6819 270.182 35.7453 269.88C35.8141 269.579 35.8485 269.203 35.8485 268.754L35.8485 268.389C35.8485 267.934 35.8141 267.556 35.7453 267.254C35.6819 266.948 35.5655 266.718 35.3963 266.564C35.2323 266.411 34.9996 266.334 34.6982 266.334C34.3967 266.334 34.1614 266.411 33.9921 266.564C33.8229 266.718 33.7039 266.945 33.6351 267.246C33.5717 267.548 33.5399 267.926 33.5399 268.381L33.5399 268.738C33.5399 269.187 33.5717 269.566 33.6351 269.872C33.7039 270.179 33.8229 270.409 33.9921 270.562C34.1614 270.716 34.3967 270.793 34.6982 270.793Z"
            fill="black" />
    </g>
    <path
        d="M56.1926 144.019L103.462 200.276L144.456 169.367L198.155 189.588L228.399 144.019L279.011 189.588L328.389 112.698L366.04 169.367L405.543 31.7324L451.217 112.698"
        stroke="#7CB342" stroke-width="1.32218" stroke-linecap="round" stroke-linejoin="round" />
    <path
        d="M451.217 84.5854L409.246 93.4988L363.571 156.703L312.959 125.101L271.605 173.719L219.14 125.101L177.169 215.045L138.284 125.101L93.8728 253.129L56.1926 184.289"
        stroke="#F57F17" stroke-width="1.32218" stroke-linecap="round" stroke-linejoin="round" />
</svg>
    