<svg xmlns="http://www.w3.org/2000/svg" width="30" height="30" viewBox="0 0 30 30" fill="none">
    <path d="M18.8106 4.51134C19.1266 4.51134 19.4297 4.63688 19.6531 4.86033C19.8766 5.08379 20.0021 5.38687 20.0021 5.70289V8.08598H24.7683C25.0844 8.08598 25.3874 8.21152 25.6109 8.43498C25.8344 8.65844 25.9599 8.96151 25.9599 9.27753V23.5761H28.343V25.9592H2.12891V23.5761H4.512V9.27753C4.512 8.96151 4.63754 8.65844 4.861 8.43498C5.08446 8.21152 5.38753 8.08598 5.70355 8.08598H10.4697V5.70289C10.4697 5.38687 10.5953 5.08379 10.8187 4.86033C11.0422 4.63688 11.3453 4.51134 11.6613 4.51134H18.8106ZM10.4697 10.4691H6.8951V23.5761H10.4697V10.4691ZM17.619 10.4691H12.8528V23.5761H17.619V10.4691ZM23.5768 10.4691H20.0021V23.5761H23.5768V10.4691ZM17.619 6.89443H12.8528V8.08598H17.619V6.89443Z" fill="#2E2A2A"/>
</svg>