<svg xmlns="http://www.w3.org/2000/svg" width="28" height="27" viewBox="0 0 28 27" fill="none">
    <path d="M16.2658 1.64491C15.4743 1.66041 14.9059 1.81018 14.5287 2.07873L9.36008 4.76946L6.48623 8.57004C5.88065 9.479 6.31093 11.2349 8.20204 10.1091L10.2738 7.4545C12.9032 5.24976 18.2685 6.26149 15.724 10.6875C14.4756 13.2491 15.06 14.4989 16.6695 15.0257L17.4026 12.6294C18.6722 9.85085 21.0414 9.34989 20.9458 7.10848L26.6403 7.50615L26.5872 1.71722L16.2658 1.64491ZM13.392 6.98453C12.4677 6.96904 11.5593 7.34088 10.9006 7.878L8.82355 10.5326C9.39195 10.9716 9.96566 10.734 10.534 10.202C11.2034 10.5326 11.724 10.0213 12.1489 8.9987C12.3242 8.30149 12.5845 7.81086 13.392 6.98453ZM9.16353 11.9425C9.14228 11.9425 9.11572 11.9425 9.09447 11.9477C8.91917 11.9838 8.712 12.1646 8.57389 12.5777C8.43046 12.9909 8.39859 13.5796 8.52608 14.2097C8.65357 14.8346 8.91917 15.3666 9.21665 15.6971C9.5035 16.0225 9.76911 16.1154 9.94441 16.0793C10.125 16.0483 10.3269 15.8624 10.465 15.4544C10.6084 15.0412 10.6456 14.4473 10.5181 13.8224C10.3853 13.1923 10.1197 12.6604 9.82754 12.335C9.57256 12.0458 9.33883 11.9425 9.16353 11.9425ZM13.5513 17.4582C13.1317 17.4634 12.6058 17.5925 12.0905 17.8352C11.5009 18.1193 11.0387 18.5118 10.789 18.8733C10.5394 19.2297 10.5181 19.4982 10.5978 19.6583C10.6775 19.8132 10.9112 19.963 11.3574 19.9837C11.8036 20.0095 12.4039 19.8907 12.9936 19.6067C13.5832 19.3226 14.0453 18.9353 14.295 18.5738C14.5447 18.2174 14.5659 17.9437 14.4862 17.7887C14.4066 17.6286 14.1728 17.484 13.7266 17.4634C13.6682 17.4582 13.6151 17.4582 13.5513 17.4582ZM8.36671 22.3955C8.11705 22.4007 7.88863 22.4368 7.68677 22.4936C7.23524 22.6228 6.97494 22.8552 6.88995 23.1289C6.79965 23.4078 6.88995 23.7383 7.19274 24.0946C7.50084 24.4458 8.01612 24.7815 8.65357 24.9675C9.28571 25.1534 9.90191 25.1482 10.3588 25.0139C10.8156 24.8848 11.0759 24.6524 11.1609 24.3787C11.2459 24.0998 11.1609 23.7693 10.8528 23.4129C10.55 23.0617 10.0347 22.726 9.39726 22.5401C9.03604 22.4368 8.68544 22.3904 8.36671 22.3955Z" fill="#2E2A2A"/>
</svg>