<svg xmlns="http://www.w3.org/2000/svg" width="30" height="30" viewBox="0 0 30 30" fill="none">
    <path fill-rule="evenodd" clip-rule="evenodd" d="M18.0143 15.4791C17.8438 14.9972 17.5282 14.58 17.1108 14.2848C16.6935 13.9897 16.1949 13.8313 15.6837 13.8313V13.2134H14.448V13.8313C13.7925 13.8313 13.1639 14.0917 12.7004 14.5551C12.2369 15.0186 11.9766 15.6472 11.9766 16.3027C11.9766 16.9582 12.2369 17.5868 12.7004 18.0503C13.1639 18.5137 13.7925 18.7741 14.448 18.7741V21.2456C13.9105 21.2456 13.4526 20.9026 13.2821 20.4219C13.2568 20.3433 13.216 20.2705 13.1621 20.2079C13.1081 20.1453 13.0422 20.0942 12.9682 20.0575C12.8942 20.0209 12.8135 19.9994 12.7311 19.9944C12.6486 19.9895 12.566 20.0011 12.4881 20.0286C12.4102 20.0561 12.3386 20.099 12.2776 20.1547C12.2165 20.2103 12.1673 20.2777 12.1327 20.3527C12.0982 20.4278 12.079 20.509 12.0764 20.5915C12.0738 20.6741 12.0877 20.7564 12.1174 20.8334C12.2879 21.3154 12.6035 21.7326 13.0209 22.0277C13.4382 22.3228 13.9368 22.4813 14.448 22.4813V23.0991H15.6837V22.4813C16.3392 22.4813 16.9678 22.2209 17.4313 21.7574C17.8948 21.2939 18.1551 20.6653 18.1551 20.0098C18.1551 19.3544 17.8948 18.7258 17.4313 18.2623C16.9678 17.7988 16.3392 17.5384 15.6837 17.5384V15.067C15.9393 15.0669 16.1885 15.1461 16.3972 15.2936C16.6059 15.4411 16.7638 15.6497 16.849 15.8906C16.9035 16.0451 17.0173 16.1716 17.1651 16.2423C17.2383 16.2773 17.3177 16.2975 17.3987 16.3019C17.4798 16.3062 17.5609 16.2945 17.6374 16.2675C17.7139 16.2405 17.7843 16.1986 17.8447 16.1444C17.905 16.0902 17.9541 16.0246 17.9891 15.9513C18.0241 15.8781 18.0443 15.7988 18.0486 15.7177C18.053 15.6367 18.0413 15.5556 18.0143 15.4791ZM14.448 15.067C14.1203 15.067 13.806 15.1972 13.5742 15.4289C13.3425 15.6607 13.2123 15.975 13.2123 16.3027C13.2123 16.6304 13.3425 16.9447 13.5742 17.1765C13.806 17.4082 14.1203 17.5384 14.448 17.5384V15.067ZM15.6837 21.2456C16.0114 21.2456 16.3257 21.1154 16.5575 20.8836C16.7892 20.6519 16.9194 20.3376 16.9194 20.0098C16.9194 19.6821 16.7892 19.3678 16.5575 19.1361C16.3257 18.9043 16.0114 18.7741 15.6837 18.7741V21.2456Z" fill="#2E2A2A"/>
    <path fill-rule="evenodd" clip-rule="evenodd" d="M8.36455 5.56496C9.88077 4.82292 12.3683 3.94556 15.0905 3.94556C17.756 3.94556 20.178 4.78646 21.6862 5.51862L21.7714 5.56002C22.2262 5.78492 22.5932 5.99746 22.8514 6.16984L20.5691 9.50627C25.8307 14.8853 29.895 26.1866 15.0905 26.1866C0.286073 26.1866 4.24098 15.0905 9.54837 9.50627L7.28083 6.16984C7.45568 6.05554 7.6775 5.9227 7.94194 5.78183C8.07292 5.71139 8.2138 5.63911 8.36455 5.56558V5.56496ZM19.1023 9.46179L20.9293 6.79079C19.2302 6.91313 17.2086 7.31226 15.2623 7.87575C13.8721 8.27735 12.3275 8.21619 10.8971 7.95236C10.5367 7.88554 10.1787 7.80599 9.82393 7.71387L11.0102 9.46055C13.5527 10.3657 16.5592 10.3657 19.1023 9.46179ZM10.2966 10.5134C13.2716 11.6626 16.8471 11.6626 19.8221 10.5121C21.0639 11.8212 22.1027 13.3088 22.904 14.9255C23.7393 16.6295 24.194 18.333 24.1199 19.801C24.0482 21.2177 23.4909 22.4281 22.2181 23.3277C20.8916 24.265 18.6605 24.9508 15.0899 24.9508C11.5156 24.9508 9.27404 24.2768 7.93514 23.35C6.65309 22.4615 6.09022 21.2678 6.01052 19.8702C5.92711 18.4182 6.37196 16.7235 7.20422 15.0077C7.99816 13.3716 9.10598 11.7967 10.2966 10.5134ZM9.58606 6.36509C10.0803 6.51214 10.5969 6.64003 11.1208 6.73704C12.4492 6.98171 13.7813 7.01754 14.9182 6.68823C16.243 6.30228 17.5904 5.99874 18.9528 5.77936C17.8159 5.43707 16.4863 5.18127 15.0899 5.18127C12.9614 5.18127 10.9762 5.77503 9.58606 6.36509Z" fill="#2E2A2A"/>
</svg>