<svg width="16" height="16" viewBox="0 0 16 16" fill="none"
    xmlns="http://www.w3.org/2000/svg">
    <g opacity="0.7" clip-path="url(#clip0_142_2565)">
        <path d="M7.99935 5.33334C8.73268 5.33334 9.33268 4.73334 9.33268 4.00001C9.33268 3.26667 8.73268 2.66667 7.99935 2.66667C7.26602 2.66667 6.66602 3.26667 6.66602 4.00001C6.66602 4.73334 7.26602 5.33334 7.99935 5.33334ZM7.99935 6.66667C7.26602 6.66667 6.66602 7.26667 6.66602 8C6.66602 8.73334 7.26602 9.33334 7.99935 9.33334C8.73268 9.33334 9.33268 8.73334 9.33268 8C9.33268 7.26667 8.73268 6.66667 7.99935 6.66667ZM7.99935 10.6667C7.26602 10.6667 6.66602 11.2667 6.66602 12C6.66602 12.7333 7.26602 13.3333 7.99935 13.3333C8.73268 13.3333 9.33268 12.7333 9.33268 12C9.33268 11.2667 8.73268 10.6667 7.99935 10.6667Z" fill="#010C15"/>
    </g>
    <defs>
        <clipPath id="clip0_142_2565">
            <rect width="16" height="16" fill="white"/>
        </clipPath>
    </defs>
</svg>
    