<svg width="24" height="24" viewBox="0 0 24 24" fill="none" xmlns="http://www.w3.org/2000/svg">
    <path
        d="M4 3.99994H10V9.99994H4V3.99994ZM14 3.99994H20V9.99994H14V3.99994ZM4 13.9999H10V19.9999H4V13.9999ZM14 16.9999C14 17.7956 14.3161 18.5587 14.8787 19.1213C15.4413 19.6839 16.2044 19.9999 17 19.9999C17.7956 19.9999 18.5587 19.6839 19.1213 19.1213C19.6839 18.5587 20 17.7956 20 16.9999C20 16.2043 19.6839 15.4412 19.1213 14.8786C18.5587 14.316 17.7956 13.9999 17 13.9999C16.2044 13.9999 15.4413 14.316 14.8787 14.8786C14.3161 15.4412 14 16.2043 14 16.9999Z"
        stroke="#002CCA" stroke-opacity="0.6" stroke-width="2" stroke-linecap="round"
        stroke-linejoin="round" />
</svg>
    