<svg width="34" height="34" viewBox="0 0 34 34" fill="none"
    xmlns="http://www.w3.org/2000/svg">
    <path d="M13.0026 19.3685C9.86584 19.3685 3.61914 20.9368 3.61914 24.0602V26.4061H22.386V24.0602C22.386 20.9368 16.1393 19.3685 13.0026 19.3685ZM6.75589 23.7251C7.88191 22.9476 10.6031 22.0495 13.0026 22.0495C15.4021 22.0495 18.1233 22.9476 19.2493 23.7251H6.75589ZM13.0026 17.0226C15.5897 17.0226 17.6943 14.918 17.6943 12.3309C17.6943 9.74373 15.5897 7.63916 13.0026 7.63916C10.4154 7.63916 8.31086 9.74373 8.31086 12.3309C8.31086 14.918 10.4154 17.0226 13.0026 17.0226ZM13.0026 10.3201C14.1152 10.3201 15.0133 11.2183 15.0133 12.3309C15.0133 13.4435 14.1152 14.3416 13.0026 14.3416C11.89 14.3416 10.9918 13.4435 10.9918 12.3309C10.9918 11.2183 11.89 10.3201 13.0026 10.3201ZM22.4397 19.4489C23.9946 20.5749 25.067 22.0763 25.067 24.0602V26.4061H30.429V24.0602C30.429 21.3524 25.7373 19.8108 22.4397 19.4489ZM21.0455 17.0226C23.6327 17.0226 25.7373 14.918 25.7373 12.3309C25.7373 9.74373 23.6327 7.63916 21.0455 7.63916C20.3217 7.63916 19.6514 7.81342 19.0348 8.10833C19.8793 9.30137 20.3753 10.7625 20.3753 12.3309C20.3753 13.8993 19.8793 15.3604 19.0348 16.5534C19.6514 16.8483 20.3217 17.0226 21.0455 17.0226Z" fill="#2E2A2A"/>
</svg>
    