<svg width="24" height="24" viewBox="0 0 24 24" fill="none" xmlns="http://www.w3.org/2000/svg">
    <path
        d="M21.18 6L12.93 1.275C12.6454 1.11741 12.3254 1.03473 12 1.03473C11.6747 1.03473 11.3546 1.11741 11.07 1.275L2.82001 6C2.53193 6.16455 2.29267 6.4026 2.12665 6.68984C1.96063 6.97708 1.87379 7.30323 1.87501 7.635V16.5C1.89658 16.8086 1.99415 17.107 2.15903 17.3687C2.32391 17.6305 2.55099 17.8473 2.82001 18L11.07 22.665C11.3546 22.8226 11.6747 22.9053 12 22.9053C12.3254 22.9053 12.6454 22.8226 12.93 22.665L21.18 18C21.449 17.8473 21.6761 17.6305 21.841 17.3687C22.0059 17.107 22.1035 16.8086 22.125 16.5V7.575C22.1158 7.25346 22.0241 6.93969 21.8586 6.66386C21.6931 6.38803 21.4594 6.15941 21.18 6ZM11.07 20.565L7.87501 18.765V10.815L11.07 12.555V20.565ZM12 10.935L8.88001 9.225L16.095 5.22L19.23 6.99L12 10.935ZM12 2.91L14.19 4.14L6.93001 8.175L4.77001 6.99L12 2.91ZM3.75001 8.565L6.00001 9.795V17.7L3.75001 16.5V8.565ZM12.93 20.565V12.555L20.25 8.565V16.5L12.93 20.565Z"
        fill="#002CCA" fill-opacity="0.6" />
</svg>
    