<svg width="18" height="19" viewBox="0 0 18 19" fill="none" xmlns="http://www.w3.org/2000/svg">
    <path fill-rule="evenodd" clip-rule="evenodd"
        d="M13.4816 10.8243C14.0439 10.8243 14.5158 11.2884 14.4298 11.8436C13.9254 15.1103 11.1289 17.5357 7.75614 17.5357C4.02456 17.5357 1 14.5112 1 10.7805C1 7.70677 3.33509 4.84362 5.96403 4.19625C6.52895 4.05677 7.10789 4.45414 7.10789 5.03572C7.10789 8.97607 7.24035 9.99537 7.9886 10.5498C8.73684 11.1041 9.61667 10.8243 13.4816 10.8243Z"
        stroke="#3C3C3C" stroke-width="1.5" stroke-linecap="round" stroke-linejoin="round" />
    <path fill-rule="evenodd" clip-rule="evenodd"
        d="M17.1604 7.543C17.2051 5.01142 14.0955 0.930718 10.306 1.00089C10.0113 1.00616 9.77532 1.25177 9.76216 1.54563C9.66654 3.62721 9.79549 6.32458 9.86742 7.54738C9.88935 7.92809 10.1885 8.22721 10.5683 8.24914C11.8253 8.32107 14.6209 8.41931 16.6727 8.10879C16.9516 8.06668 17.156 7.82458 17.1604 7.543Z"
        stroke="#3C3C3C" stroke-width="1.5" stroke-linecap="round" stroke-linejoin="round" />
</svg>
    