<svg width="18" height="18" viewBox="0 0 18 18" fill="none" xmlns="http://www.w3.org/2000/svg">
    <g clip-path="url(#clip0_30_3505)">
        <path
            d="M7.875 4.5V5.625H4.5V4.5H7.875ZM4.5 7.875V6.75H7.875V7.875H4.5ZM4.5 10.125V9H6.75V10.125H4.5ZM3.375 4.5V5.625H2.25V4.5H3.375ZM3.375 6.75V7.875H2.25V6.75H3.375ZM2.25 10.125V9H3.375V10.125H2.25ZM1.125 1.125V16.875H6.75V18H0V0H9.7998L14.625 4.8252V6.75H13.5V5.625H9V1.125H1.125ZM10.125 1.9248V4.5H12.7002L10.125 1.9248ZM15.75 9H18V18H7.875V9H10.125V7.875H11.25V9H14.625V7.875H15.75V9ZM16.875 16.875V12.375H9V16.875H16.875ZM16.875 11.25V10.125H9V11.25H16.875Z"
            fill="#1E1E1E" />
    </g>
    <defs>
        <clipPath id="clip0_30_3505">
            <rect width="18" height="18" fill="white" />
        </clipPath>
    </defs>
</svg>
    