<svg width="24" height="24" viewBox="0 0 24 24" fill="none" xmlns="http://www.w3.org/2000/svg">
    <path fill-rule="evenodd" clip-rule="evenodd"
        d="M14.386 12.3335C14.2481 11.9435 13.9927 11.6059 13.6549 11.3671C13.3171 11.1282 12.9137 11 12.5 11V10.5H11.5V11C10.9696 11 10.4609 11.2107 10.0858 11.5858C9.71071 11.9609 9.5 12.4696 9.5 13C9.5 13.5304 9.71071 14.0391 10.0858 14.4142C10.4609 14.7893 10.9696 15 11.5 15V17C11.065 17 10.6945 16.7225 10.5565 16.3335C10.536 16.2699 10.503 16.211 10.4594 16.1603C10.4157 16.1097 10.3624 16.0683 10.3025 16.0386C10.2426 16.0089 10.1773 15.9916 10.1106 15.9875C10.0439 15.9835 9.97699 15.9929 9.91396 16.0152C9.85092 16.0375 9.79299 16.0721 9.7436 16.1172C9.6942 16.1622 9.65434 16.2167 9.62637 16.2775C9.59841 16.3382 9.5829 16.4039 9.58078 16.4707C9.57865 16.5376 9.58995 16.6041 9.614 16.6665C9.75192 17.0565 10.0073 17.3941 10.3451 17.6329C10.6829 17.8718 11.0863 18 11.5 18V18.5H12.5V18C13.0304 18 13.5391 17.7893 13.9142 17.4142C14.2893 17.0391 14.5 16.5304 14.5 16C14.5 15.4696 14.2893 14.9609 13.9142 14.5858C13.5391 14.2107 13.0304 14 12.5 14V12C12.7068 11.9999 12.9085 12.064 13.0774 12.1834C13.2463 12.3027 13.374 12.4715 13.443 12.6665C13.4872 12.7915 13.5792 12.8939 13.6988 12.9511C13.7581 12.9795 13.8223 12.9958 13.8879 12.9993C13.9535 13.0028 14.0191 12.9934 14.081 12.9715C14.1429 12.9496 14.1999 12.9158 14.2488 12.8719C14.2976 12.828 14.3373 12.7749 14.3656 12.7157C14.394 12.6564 14.4103 12.5922 14.4138 12.5266C14.4173 12.461 14.4079 12.3954 14.386 12.3335ZM11.5 12C11.2348 12 10.9804 12.1054 10.7929 12.2929C10.6054 12.4804 10.5 12.7348 10.5 13C10.5 13.2652 10.6054 13.5196 10.7929 13.7071C10.9804 13.8946 11.2348 14 11.5 14V12ZM12.5 17C12.7652 17 13.0196 16.8946 13.2071 16.7071C13.3946 16.5196 13.5 16.2652 13.5 16C13.5 15.7348 13.3946 15.4804 13.2071 15.2929C13.0196 15.1054 12.7652 15 12.5 15V17Z"
        fill="#515053" />
    <path fill-rule="evenodd" clip-rule="evenodd"
        d="M6.57649 4.3105C7.80349 3.71 9.81649 3 12.0195 3C14.1765 3 16.1365 3.6805 17.357 4.273L17.426 4.3065C17.794 4.4885 18.091 4.6605 18.3 4.8L16.453 7.5C20.711 11.853 24 20.9985 12.0195 20.9985C0.03899 20.9985 3.23949 12.019 7.53449 7.5L5.69949 4.8C5.84099 4.7075 6.02049 4.6 6.23449 4.486C6.34049 4.429 6.45449 4.3705 6.57649 4.311V4.3105ZM15.266 7.464L16.7445 5.3025C15.3695 5.4015 13.7335 5.7245 12.1585 6.1805C11.0335 6.5055 9.78349 6.456 8.62599 6.2425C8.33431 6.18842 8.04462 6.12405 7.75749 6.0495L8.71749 7.463C10.775 8.1955 13.208 8.1955 15.266 7.464ZM8.13999 8.315C10.5475 9.245 13.441 9.245 15.8485 8.314C16.8534 9.37335 17.6941 10.5772 18.3425 11.8855C19.0185 13.2645 19.3865 14.643 19.3265 15.831C19.2685 16.9775 18.8175 17.957 17.7875 18.685C16.714 19.4435 14.9085 19.9985 12.019 19.9985C9.12649 19.9985 7.31249 19.453 6.22899 18.703C5.19149 17.984 4.73599 17.018 4.67149 15.887C4.60399 14.712 4.96399 13.3405 5.63749 11.952C6.27999 10.628 7.17649 9.3535 8.13999 8.315ZM7.56499 4.958C7.96499 5.077 8.38299 5.1805 8.80699 5.259C9.88199 5.457 10.96 5.486 11.88 5.2195C12.9521 4.90717 14.0425 4.66154 15.145 4.484C14.225 4.207 13.149 4 12.019 4C10.2965 4 8.68999 4.4805 7.56499 4.958Z"
        fill="#515053" />
</svg>
